<svg xmlns="http://www.w3.org/2000/svg" width="20.342" height="24" viewBox="0 0 20.342 24"><g transform="translate(-8 -6)"><path d="M246.443,120.669a.576.576,0,0,0-.576-.576H231.9a.576.576,0,0,0-.576.576v17.624a.576.576,0,1,0,1.152,0V121.245h13.391A.576.576,0,0,0,246.443,120.669Z" transform="translate(-220.982 -111.75)" fill="#fff"/><path d="M244.1,118.326a.576.576,0,0,0-.576-.576H229.558a.576.576,0,0,0-.576.576v17.625a.576.576,0,0,0,1.152,0V118.9h13.391A.576.576,0,0,0,244.1,118.326Z" transform="translate(-220.982 -111.75)" fill="#fff"/><path d="M248.611,122.7H234.644a.714.714,0,0,0-.714.714v17.625a.713.713,0,0,0,.714.713h9.836v-4.533a.576.576,0,0,1,.576-.576h4.268V123.412A.714.714,0,0,0,248.611,122.7Z" transform="translate(-220.982 -111.75)" fill="#fff"/><path d="M245.632,141.6a.624.624,0,0,0,.086-.076l3.409-3.578a.735.735,0,0,0,.11-.158h-3.6Z" transform="translate(-220.982 -111.75)" fill="#fff"/></g></svg>