<?xml version="1.0" encoding="UTF-8"?>
<svg width="7px" height="4px" viewBox="0 0 7 4" version="1.1" xmlns="http://www.w3.org/2000/svg" xmlns:xlink="http://www.w3.org/1999/xlink">
    <!-- Generator: Sketch 56.3 (81716) - https://sketch.com -->
    <title>angle1</title>
    <desc>Created with Sketch.</desc>
    <g id="PlatformPage" stroke="none" stroke-width="1" fill="none" fill-rule="evenodd">
        <g transform="translate(-1155.000000, -55.000000)" fill="#000000" id="Group">
            <g transform="translate(385.000000, 48.000000)">
                <g id="angle1" transform="translate(770.000000, 7.000000)">
                    <path d="M6.90106098,0.431583333 L6.55336585,0.0921666667 C6.5070122,0.0468333333 6.45365854,0.02425 6.39330488,0.02425 C6.33312195,0.02425 6.27976829,0.0468333333 6.23341463,0.0921666667 L3.5,2.76041667 L0.766670732,0.09225 C0.720317073,0.0469166667 0.666963415,0.0243333333 0.606695122,0.0243333333 C0.546426829,0.0243333333 0.493073171,0.0469166667 0.446719512,0.09225 L0.0990243902,0.431666667 C0.0525853659,0.476916667 0.0294512195,0.529 0.0294512195,0.587833333 C0.0294512195,0.646666667 0.0526707317,0.69875 0.0990243902,0.744 L3.34002439,3.90791667 C3.38637805,3.95316667 3.43973171,3.97575 3.5,3.97575 C3.56026829,3.97575 3.61353659,3.95316667 3.65989024,3.90791667 L6.90106098,0.744 C6.94741463,0.69875 6.97046341,0.646666667 6.97046341,0.587833333 C6.97046341,0.529 6.94741463,0.476916667 6.90106098,0.431583333 L6.90106098,0.431583333 Z" id="Shape" fill="#525252"></path>
                </g>
            </g>
        </g>
    </g>
</svg>