<svg xmlns="http://www.w3.org/2000/svg" width="24.41" height="24.414" viewBox="0 0 24.41 24.414"><g transform="translate(-3.375 -3.375)"><path d="M26.928,11.981H13.922a2.239,2.239,0,0,0-2.236,2.236v9.056a2.234,2.234,0,0,0,2.236,2.23h7.442a.641.641,0,0,1,.446.188l3.7,3.41c.205.2.546.117.546-.17v-2.97c0-.352.223-.464.575-.464h.059a2.443,2.443,0,0,0,2.471-2.23v-9.05A2.227,2.227,0,0,0,26.928,11.981Z" transform="translate(-1.374 -1.422)" fill="#fff"/><path d="M10.794,9.121H21.205V5.288a1.914,1.914,0,0,0-1.913-1.913h-14A1.914,1.914,0,0,0,3.375,5.288v9.7A1.914,1.914,0,0,0,5.288,16.9H8.874V11.034A1.922,1.922,0,0,1,10.794,9.121Z" fill="#fff"/></g></svg>