<svg xmlns="http://www.w3.org/2000/svg" width="19.253" height="25.534" viewBox="0 0 19.253 25.534"><g transform="translate(-726.665 -235.589)"><path d="M745.25,235.589H727.333a.668.668,0,0,0-.668.668v24.2a.668.668,0,0,0,.668.668H729a.65.65,0,0,0,.177-.027l.035,0H745.25a.668.668,0,0,0,.668-.668V236.257A.668.668,0,0,0,745.25,235.589Zm-9.645,24.169,7.272-1.525a.533.533,0,0,0,.061-.019,3.692,3.692,0,0,0,1.645-.788v2.331Zm8.977-5.17a2.365,2.365,0,0,1-2.363,2.362h-.388a2.365,2.365,0,0,1-2.362-2.362c0-.015,0-.028,0-.043a.667.667,0,0,0-.008-.073.588.588,0,0,0-.016-.063.569.569,0,0,0-.019-.061.6.6,0,0,0-.031-.066.307.307,0,0,0-.018-.039.066.066,0,0,0-.009-.013.544.544,0,0,0-.044-.059.529.529,0,0,0-.037-.046c-.016-.016-.033-.029-.049-.044s-.031-.028-.049-.04a.6.6,0,0,0-.057-.033.456.456,0,0,0-.054-.03c-.02-.008-.041-.015-.063-.022s-.04-.014-.061-.019-.038-.006-.058-.008a.655.655,0,0,0-.074-.007l-.015,0c-.014,0-.027,0-.041,0a.478.478,0,0,0-.135.022.5.5,0,0,0-.065.02.644.644,0,0,0-.064.03c-.013.007-.027.012-.04.019l-9.5,5.741H728V236.924h16.583v17.664Z" fill="#024f6e"/><g transform="translate(729.635 238.091)"><path d="M736.317,246.427l-2.078-2.481-.9,1.751,2.926,2.735,4.766-4.958-.821-2.262Z" transform="translate(-733.339 -241.211)" fill="#024f6e"/><path d="M739.981,259.951l-2.049,2.285-2.049-2.285-1.2,2.177,1.852,1.663-1.852,2.065.985,1.217,2.261-2.03,2.261,2.03.985-1.217-1.853-2.065,1.853-1.663Z" transform="translate(-734.086 -251.611)" fill="#024f6e"/><rect width="4.953" height="1.113" transform="translate(8.359 4.546)" fill="#024f6e"/><rect width="4.953" height="1.113" transform="translate(8.359 11.901)" fill="#024f6e"/></g></g></svg>