<?xml version="1.0" encoding="UTF-8"?>
<svg width="11px" height="13px" viewBox="0 0 11 13" version="1.1" xmlns="http://www.w3.org/2000/svg" xmlns:xlink="http://www.w3.org/1999/xlink">
    <!-- Generator: Sketch 56.3 (81716) - https://sketch.com -->
    <title>nine10</title>
    <desc>Created with Sketch.</desc>
    <g id="PlatformPage" stroke="none" stroke-width="1" fill="none" fill-rule="evenodd">
        <g transform="translate(-1184.000000, -50.000000)" fill="#000000" id="nine10">
            <g transform="translate(1184.000000, 51.000000)">
                <g id="Group" fill="none" transform="translate(0.000000, -0.096491)">
                    <path d="M6.48208904,8.11221053 L4.51783562,8.11221053 C4.35411644,8.11221053 4.21503425,8.18554386 4.10043836,8.33230702 C3.98584247,8.47907018 3.92858219,8.65719298 3.92858219,8.86677193 L3.92858219,10.3763772 C3.92858219,10.5859561 3.98584247,10.7642719 4.10043836,10.9109386 C4.2149589,11.0577018 4.35411644,11.1309386 4.51783562,11.1309386 L6.48208904,11.1309386 C6.64588356,11.1309386 6.78496575,11.0576053 6.89956164,10.9109386 C7.01408219,10.7641754 7.07141781,10.5859561 7.07141781,10.3763772 L7.07141781,8.86677193 C7.07141781,8.65719298 7.01415753,8.47897368 6.89956164,8.33230702 C6.78496575,8.18564035 6.64588356,8.11221053 6.48208904,8.11221053 L6.48208904,8.11221053 Z" id="Shape" fill="#BAC0CC"></path>
                    <path d="M2.55358219,8.11221053 L0.589253425,8.11221053 C0.425609589,8.11221053 0.286452055,8.18554386 0.171856164,8.33230702 C0.057260274,8.47907018 0,8.65728947 0,8.86686842 L0,10.3764737 C0,10.5860526 0.057260274,10.7643684 0.171856164,10.9110351 C0.286452055,11.0577982 0.425609589,11.1310351 0.589253425,11.1310351 L2.55358219,11.1310351 C2.71722603,11.1310351 2.85638356,11.0577018 2.97097945,10.9110351 C3.08557534,10.7643684 3.14283562,10.5860526 3.14283562,10.3764737 L3.14283562,8.86686842 C3.14283562,8.65728947 3.08557534,8.47907018 2.97097945,8.33240351 C2.85638356,8.18573684 2.71722603,8.11221053 2.55358219,8.11221053 L2.55358219,8.11221053 Z" id="Shape" fill="#BAC0CC"></path>
                    <path d="M2.55358219,0.0619473684 L0.589253425,0.0619473684 C0.425609589,0.0619473684 0.286452055,0.135280702 0.171856164,0.28204386 C0.057260274,0.428807018 0,0.607026316 0,0.816605263 L0,2.32611404 C0,2.53578947 0.057260274,2.71410526 0.171856164,2.86077193 C0.286452055,3.0074386 0.425609589,3.08086842 0.589253425,3.08086842 L2.55358219,3.08086842 C2.71722603,3.08086842 2.85638356,3.0074386 2.97097945,2.86077193 C3.08557534,2.71410526 3.14283562,2.53588596 3.14283562,2.32621053 L3.14283562,0.816701754 C3.14283562,0.607122807 3.08557534,0.428903509 2.97097945,0.28204386 C2.85638356,0.135377193 2.71722603,0.0619473684 2.55358219,0.0619473684 L2.55358219,0.0619473684 Z" id="Shape" fill="#BAC0CC"></path>
                    <path d="M6.48208904,4.08717544 L4.51783562,4.08717544 C4.35411644,4.08717544 4.21503425,4.16050877 4.10043836,4.30727193 C3.98584247,4.45403509 3.92858219,4.63215789 3.92858219,4.84183333 L3.92858219,6.35134211 C3.92858219,6.56101754 3.98584247,6.73914035 4.10043836,6.88580702 C4.2149589,7.03257018 4.35411644,7.10590351 4.51783562,7.10590351 L6.48208904,7.10590351 C6.64588356,7.10590351 6.78496575,7.03257018 6.89956164,6.88580702 C7.01408219,6.73914035 7.07141781,6.56101754 7.07141781,6.35134211 L7.07141781,4.84183333 C7.07141781,4.63215789 7.01415753,4.4539386 6.89956164,4.30727193 C6.78496575,4.16060526 6.64588356,4.08717544 6.48208904,4.08717544 L6.48208904,4.08717544 Z" id="Shape" fill="#BAC0CC"></path>
                    <path d="M2.55358219,4.08717544 L0.589253425,4.08717544 C0.425609589,4.08717544 0.286452055,4.16050877 0.171856164,4.30727193 C0.057260274,4.4539386 0,4.63215789 0,4.84183333 L0,6.35134211 C0,6.56101754 0.057260274,6.73914035 0.171856164,6.88580702 C0.286452055,7.03257018 0.425609589,7.10590351 0.589253425,7.10590351 L2.55358219,7.10590351 C2.71722603,7.10590351 2.85638356,7.03257018 2.97097945,6.88580702 C3.08557534,6.73914035 3.14283562,6.56101754 3.14283562,6.35134211 L3.14283562,4.84183333 C3.14283562,4.63215789 3.08557534,4.4539386 2.97097945,4.30727193 C2.85638356,4.16060526 2.71722603,4.08717544 2.55358219,4.08717544 L2.55358219,4.08717544 Z" id="Shape" fill="#BAC0CC"></path>
                    <path d="M10.8281438,0.282140351 C10.7135479,0.135473684 10.5744658,0.0620438596 10.4108219,0.0620438596 L8.44649315,0.0620438596 C8.28284932,0.0620438596 8.14361644,0.135377193 8.02902055,0.282140351 C7.9145,0.428903509 7.85723973,0.607122807 7.85723973,0.816701754 L7.85723973,2.32621053 C7.85723973,2.53588596 7.9145,2.71400877 8.02902055,2.86077193 C8.14361644,3.0074386 8.28284932,3.08086842 8.44649315,3.08086842 L10.4108219,3.08086842 C10.5744658,3.08086842 10.7135479,3.0074386 10.8281438,2.86077193 C10.9427397,2.71410526 11,2.53588596 11,2.32621053 L11,0.816701754 C11,0.607122807 10.9427397,0.428903509 10.8281438,0.282140351 L10.8281438,0.282140351 Z" id="Shape" fill="#BAC0CC"></path>
                    <path d="M6.48208904,0.0620438596 L4.51783562,0.0620438596 C4.35411644,0.0620438596 4.21503425,0.135377193 4.10043836,0.282140351 C3.98584247,0.428903509 3.92858219,0.607122807 3.92858219,0.816701754 L3.92858219,2.32621053 C3.92858219,2.53588596 3.98584247,2.71400877 4.10043836,2.86077193 C4.2149589,3.0074386 4.35411644,3.08086842 4.51783562,3.08086842 L6.48208904,3.08086842 C6.64588356,3.08086842 6.78496575,3.00753509 6.89956164,2.86077193 C7.01408219,2.71410526 7.07141781,2.53588596 7.07141781,2.32621053 L7.07141781,0.816701754 C7.07141781,0.607122807 7.01415753,0.428903509 6.89956164,0.282140351 C6.78496575,0.135473684 6.64588356,0.0620438596 6.48208904,0.0620438596 L6.48208904,0.0620438596 Z" id="Shape" fill="#BAC0CC"></path>
                    <path d="M10.4108219,4.08717544 L8.44649315,4.08717544 C8.28284932,4.08717544 8.14361644,4.16050877 8.02902055,4.30727193 C7.9145,4.45403509 7.85723973,4.63215789 7.85723973,4.84183333 L7.85723973,6.35134211 C7.85723973,6.56101754 7.9145,6.73914035 8.02902055,6.88580702 C8.14361644,7.03257018 8.28284932,7.10590351 8.44649315,7.10590351 L10.4108219,7.10590351 C10.5744658,7.10590351 10.7136233,7.03257018 10.8281438,6.88580702 C10.9427397,6.73914035 11,6.56101754 11,6.35134211 L11,4.84183333 C11,4.63215789 10.9427397,4.4539386 10.8281438,4.30727193 C10.7135479,4.16050877 10.5744658,4.08717544 10.4108219,4.08717544 L10.4108219,4.08717544 Z" id="Shape" fill="#BAC0CC"></path>
                    <path d="M10.4108219,8.11221053 L8.44649315,8.11221053 C8.28284932,8.11221053 8.14361644,8.18554386 8.02902055,8.33230702 C7.9145,8.47907018 7.85723973,8.65719298 7.85723973,8.86677193 L7.85723973,10.3763772 C7.85723973,10.5859561 7.9145,10.7642719 8.02902055,10.9109386 C8.14361644,11.0577018 8.28284932,11.1309386 8.44649315,11.1309386 L10.4108219,11.1309386 C10.5744658,11.1309386 10.7136233,11.0576053 10.8281438,10.9109386 C10.9427397,10.7641754 11,10.5859561 11,10.3763772 L11,8.86677193 C11,8.65719298 10.9427397,8.47897368 10.8281438,8.33230702 C10.7135479,8.18564035 10.5744658,8.11221053 10.4108219,8.11221053 L10.4108219,8.11221053 Z" id="Shape" fill="#BAC0CC"></path>
                </g>
            </g>
        </g>
    </g>
</svg>