<?xml version="1.0" standalone="no"?>
<!DOCTYPE svg PUBLIC "-//W3C//DTD SVG 20010904//EN"
 "http://www.w3.org/TR/2001/REC-SVG-20010904/DTD/svg10.dtd">
<svg version="1.0" xmlns="http://www.w3.org/2000/svg"
 width="512.000000pt" height="512.000000pt" viewBox="0 0 512.000000 512.000000"
 preserveAspectRatio="xMidYMid meet">

<g transform="translate(0.000000,512.000000) scale(0.100000,-0.100000)"
fill="#000000" stroke="none">
<path d="M2010 4648 c-55 -28 -122 -93 -149 -147 -20 -38 -21 -57 -21 -326 l0
-285 -345 0 -345 0 0 -1720 0 -1720 1410 0 1410 0 0 1720 0 1720 -339 0 -340
0 -3 288 -3 287 -27 46 c-33 56 -105 123 -154 144 -31 13 -109 15 -543 15
-503 0 -506 0 -551 -22z m1020 -498 l0 -260 -465 0 -465 0 0 260 0 260 465 0
465 0 0 -260z"/>
<path d="M337 3869 c-127 -51 -246 -159 -303 -274 l-34 -70 2 -1365 3 -1365
29 -60 c36 -74 151 -192 221 -227 103 -52 141 -58 392 -58 l233 0 0 1720 0
1720 -247 -1 c-222 0 -253 -2 -296 -20z"/>
<path d="M4250 2170 l0 -1720 234 0 c272 0 309 7 425 84 78 52 141 124 180
206 l26 55 0 1375 0 1375 -35 65 c-47 90 -157 198 -246 241 l-68 34 -258 3
-258 3 0 -1721z"/>
</g>
</svg>
