<svg xmlns="http://www.w3.org/2000/svg" width="22.989" height="23.105" viewBox="0 0 22.989 23.105"><g transform="translate(2111 1015)"><g transform="translate(-2111 -1015)"><path d="M478.989,74.09a1.316,1.316,0,0,0,1.316-1.316V68.907a1.316,1.316,0,1,0-2.632,0v3.867a1.316,1.316,0,0,0,1.316,1.316Z" transform="translate(-462.742 -67.591)" fill="#fff"/><path d="M420.407,74.09a1.316,1.316,0,0,0,1.316-1.316V68.907a1.316,1.316,0,1,0-2.632,0v3.867a1.316,1.316,0,0,0,1.316,1.316Z" transform="translate(-413.576 -67.591)" fill="#fff"/><path d="M459.5,172.5h3.057v-3.057H459.5V172.5Z" transform="translate(-447.494 -153.076)" fill="#fff"/><path d="M434.057,172.5h3.057v-3.057h-3.057V172.5Z" transform="translate(-426.136 -153.076)" fill="#fff"/><path d="M408.61,172.5h3.057v-3.057H408.61V172.5Z" transform="translate(-404.779 -153.076)" fill="#fff"/><path d="M484.952,147.056h3.057V144h-3.057v3.057Z" transform="translate(-468.851 -131.718)" fill="#fff"/><path d="M462.562,144H459.5v3.057h3.057V144Z" transform="translate(-447.494 -131.718)" fill="#fff"/><path d="M437.114,144h-3.057v3.057h3.057V144Z" transform="translate(-426.136 -131.718)" fill="#fff"/><path d="M411.667,144H408.61v3.057h3.057V144Z" transform="translate(-404.779 -131.718)" fill="#fff"/><path d="M488.009,118.007h-3.057v3.057h3.057v-3.057Z" transform="translate(-468.851 -109.904)" fill="#fff"/><path d="M462.562,118.007H459.5v3.057h3.057v-3.057Z" transform="translate(-447.494 -109.904)" fill="#fff"/><path d="M437.114,118.007h-3.057v3.057h3.057v-3.057Z" transform="translate(-426.136 -109.904)" fill="#fff"/><path d="M447.6,83.237h-4.25V85.3h4.25V83.237Z" transform="translate(-433.934 -80.722)" fill="#fff"/><path d="M404.39,83.237H403.6V85.3h.788a1.308,1.308,0,0,1,1.306,1.306v13.848a1.308,1.308,0,0,1-1.306,1.306H388.143a1.308,1.308,0,0,1-1.306-1.306V86.608a1.308,1.308,0,0,1,1.306-1.306h.878V83.237h-.878a3.375,3.375,0,0,0-3.371,3.371v13.848a3.375,3.375,0,0,0,3.371,3.371H404.39a3.375,3.375,0,0,0,3.371-3.371V86.608a3.375,3.375,0,0,0-3.371-3.371Z" transform="translate(-384.772 -80.723)" fill="#fff"/><path d="M411.667,118.007H408.61v3.057h3.057v-3.057Z" transform="translate(-404.779 -109.904)" fill="#fff"/><path d="M484.953,172.5h3.057v-3.057h-3.057V172.5Z" transform="translate(-468.852 -153.076)" fill="#fff"/></g></g></svg>