<svg xmlns="http://www.w3.org/2000/svg" width="30.89" height="18.252" viewBox="0 0 30.89 18.252"><path d="M34.7,106.97a2.583,2.583,0,0,0-.03-.29,3.277,3.277,0,0,0-6.53,0,2.85,2.85,0,0,0-.03.29,3.3,3.3,0,1,0,6.59,0Zm-4.41,0a.937.937,0,0,1,.06-.29,1.1,1.1,0,0,1,2.12,0,1,1,0,0,1,.06.29,1.12,1.12,0,1,1-2.24,0Z" transform="translate(-23.93 -92.018)" fill="#fff"/><path d="M47.78,110.27a3.3,3.3,0,0,0,3.29-3.3,2.583,2.583,0,0,0-.03-.29,3.271,3.271,0,0,0-6.52,0,2.851,2.851,0,0,0-.03.29A3.282,3.282,0,0,0,47.78,110.27Zm-1.06-3.59a1.1,1.1,0,0,1,1.06-.82,1.113,1.113,0,0,1,1.06.82,1,1,0,0,1,.06.29,1.118,1.118,0,0,1-1.12,1.12h0a1.125,1.125,0,0,1-1.12-1.12A1,1,0,0,1,46.72,106.68Z" transform="translate(-23.93 -92.018)" fill="#fff"/><path d="M26.91,106.68a4.5,4.5,0,0,1,8.99,0h7.38a4.5,4.5,0,0,1,8.98,0h1.36a1.212,1.212,0,0,0,.85-.35,1.187,1.187,0,0,0,.35-.85V104a5.174,5.174,0,0,0-2.9-4.23,12.193,12.193,0,0,0-1.78-.86c-.17-.06-.31-.12-.44-.16-3.47-4.81-6.67-6.81-11.85-6.73-.77,0-1.58.03-2.44.1-4.98.36-8.02,1.93-9.68,4.28-1.64,2.34-1.79,5.09-1.8,7.56v1.51a1.18,1.18,0,0,0,.36.85,1.193,1.193,0,0,0,.86.35h1.76Zm9.8-12.21c.41-.02.79-.03,1.16-.03,4.05.07,5.96.94,8.72,4.26H36.71Zm-2.54.23c.2-.03.4-.05.6-.08v4.09H27.71C28.75,95.96,32.28,95.01,34.17,94.7Z" transform="translate(-23.93 -92.018)" fill="#fff"/></svg>