<?xml version="1.0" encoding="UTF-8"?>
<svg width="31px" height="19px" viewBox="0 0 31 19" version="1.1" xmlns="http://www.w3.org/2000/svg" xmlns:xlink="http://www.w3.org/1999/xlink">
    <!-- Generator: Sketch 56.3 (81716) - https://sketch.com -->
    <title>car</title>
    <desc>Created with Sketch.</desc>
    <g id="Page-1" stroke="none" stroke-width="1" fill="none" fill-rule="evenodd">
        <g id="Desktop-HD" transform="translate(-780.000000, -543.000000)" fill="#CECECE" fill-rule="nonzero">
            <g id="car" transform="translate(780.000000, 543.000000)">
                <path d="M10.77,14.952 C10.7654678,14.8548456 10.7554518,14.7580248 10.74,14.662 C10.5945437,12.9669995 9.17623025,11.6651857 7.475,11.6651857 C5.77376975,11.6651857 4.3554563,12.9669995 4.21,14.662 C4.19505894,14.7580915 4.18504584,14.8548848 4.18,14.952 C4.11273697,16.1725047 4.72563547,17.3302128 5.77283372,17.9607142 C6.82003196,18.5912155 8.12996804,18.5912155 9.17716628,17.9607142 C10.2243645,17.3302128 10.837263,16.1725047 10.77,14.952 L10.77,14.952 Z M6.36,14.952 C6.36450107,14.852764 6.38475396,14.754875 6.42,14.662 C6.55208792,14.1856655 6.98569056,13.8559388 7.48,13.8559388 C7.97430944,13.8559388 8.40791208,14.1856655 8.54,14.662 C8.57428201,14.7551531 8.59450369,14.8528912 8.6,14.952 C8.6,15.5705589 8.09855892,16.072 7.48,16.072 C6.86144108,16.072 6.36,15.5705589 6.36,14.952 L6.36,14.952 Z" id="Shape"></path>
                <path d="M23.85,18.2520099 C25.6686332,18.246489 27.14,16.7706416 27.14,14.952 C27.1354678,14.8548456 27.1254518,14.7580248 27.11,14.662 C26.9704857,12.9651244 25.5526013,11.6590317 23.85,11.6590317 C22.1473987,11.6590317 20.7295143,12.9651244 20.59,14.662 C20.5750607,14.7580918 20.5650476,14.854885 20.5599505,14.952 C20.5551987,15.8269433 20.8999591,16.6675843 21.5177072,17.2872101 C22.1354553,17.9068359 22.9750461,18.2541459 23.85,18.2520099 Z M22.79,14.662 C22.916831,14.1801361 23.351727,13.8437071 23.85,13.842 C24.3467377,13.8481436 24.7792606,14.1827367 24.91,14.662 C24.944282,14.7551531 24.9645037,14.8528912 24.9700018,14.952 C24.9705322,15.2492053 24.8527034,15.534391 24.6425472,15.7445472 C24.432391,15.9547034 24.1472053,16.0725322 23.85,16.0720018 L23.85,16.0720018 C23.2325788,16.0692619 22.7327381,15.5694212 22.73,14.952 C22.7354963,14.8528912 22.755718,14.7551531 22.79,14.662 L22.79,14.662 Z" id="Shape"></path>
                <path d="M2.98,14.662 C3.09323901,12.2618401 5.0721703,10.3740731 7.475,10.3740731 C9.8778297,10.3740731 11.856761,12.2618401 11.97,14.662 L19.35,14.662 C19.5078386,12.298369 21.4711048,10.4618333 23.84,10.4618333 C26.2088952,10.4618333 28.1721614,12.298369 28.33,14.662 L29.69,14.662 C30.0083003,14.6614749 30.3136183,14.5357557 30.54,14.312 C30.7660941,14.0871746 30.8922312,13.7808417 30.8900291,13.462 L30.8900291,11.982 C30.7393246,10.1583968 29.6366413,8.55000012 27.99,7.752 C27.4209218,7.41762764 26.8256324,7.13001593 26.21,6.892 C26.04,6.832 25.9,6.772 25.77,6.732 C22.3,1.922 19.1,-0.078 13.92,0.002 C13.15,0.002 12.34,0.032 11.48,0.102 C6.49999908,0.462 3.46,2.032 1.8,4.382 C0.16,6.722 0.01,9.472 -9.18296877e-07,11.942 L-9.18296877e-07,13.452 C-0.000399486144,13.7724628 0.12955745,14.0793056 0.36,14.302 C0.587642667,14.530011 0.897832127,14.6562509 1.22,14.652 L2.98,14.652 L2.98,14.662 Z M12.78,2.452 C13.19,2.432 13.57,2.422 13.94,2.422 C17.99,2.492 19.9,3.362 22.66,6.682 L12.78,6.682 L12.78,2.452 Z M10.24,2.682 C10.44,2.652 10.64,2.632 10.84,2.602 L10.84,6.692 L3.78,6.692 C4.82,3.942 8.35,2.992 10.24,2.682 Z" id="Shape"></path>
            </g>
        </g>
    </g>
</svg>