<svg xmlns="http://www.w3.org/2000/svg" width="22" height="19.2" viewBox="0 0 22 19.2"><g transform="translate(0 0)"><g transform="translate(0)"><path d="M205.4,32.554a.506.506,0,0,0-.958,0L194.035,50.582c-.263.456-.048.83.479.83h20.817c.527,0,.743-.373.479-.83L205.4,32.554a.506.506,0,0,0-.958,0L194.035,50.582c-.263.456-.048.83.479.83h20.817c.527,0,.743-.373.479-.83Z" transform="translate(-193.922 -32.212)" fill="#dbad10"/><line y2="4.153" transform="translate(10.903 7.259)" fill="none" stroke="#fff" stroke-linecap="round" stroke-width="2"/><path d="M0,0V.619" transform="translate(10.903 14.687)" fill="none" stroke="#fff" stroke-linecap="round" stroke-width="2"/></g></g></svg>