<?xml version="1.0" encoding="UTF-8"?>
<svg width="32px" height="25px" viewBox="0 0 32 25" version="1.1" xmlns="http://www.w3.org/2000/svg" xmlns:xlink="http://www.w3.org/1999/xlink">
    <!-- Generator: Sketch 56.3 (81716) - https://sketch.com -->
    <title>Path</title>
    <desc>Created with Sketch.</desc>
    <g id="Page-1" stroke="none" stroke-width="1" fill="none" fill-rule="evenodd">
        <g id="Desktop-HD" transform="translate(-710.000000, -672.000000)" fill="#DEDEDE">
            <path d="M741.409774,678.392069 L723.59151,695.965647 C723.223933,696.327833 722.788681,696.509453 722.285398,696.509804 C721.782116,696.509804 721.346864,696.328184 720.979286,695.965998 L710.590582,685.719399 C710.223005,685.356862 710.039216,684.927578 710.039216,684.431548 C710.039216,683.935518 710.223005,683.505883 710.590582,683.143697 L713.550795,680.224077 C713.918373,679.86154 714.353268,679.680271 714.856551,679.680271 C715.359833,679.680271 715.795085,679.86154 716.162663,680.224077 L722.285754,686.262854 L735.837693,672.896747 C736.204558,672.53421 736.640523,672.352941 737.143449,672.352941 C737.646375,672.352941 738.081627,672.53421 738.449205,672.896747 L741.409774,675.816367 C741.776639,676.178905 741.960784,676.608188 741.960784,677.104218 C741.960784,677.600248 741.776639,678.029883 741.409774,678.392069 L741.409774,678.392069 Z" id="Path"></path>
        </g>
    </g>
</svg>