<svg xmlns="http://www.w3.org/2000/svg" width="21.572" height="24.631" viewBox="0 0 21.572 24.631"><g transform="translate(65.604 -169.777)"><path d="M-45.744,187.1q-.5-.284-.992-.565a.326.326,0,0,0-.154-.052c-.07,0-.125.043-.187.133-.162.237-.325.474-.484.715-.036.052-.069.088-.128.088a.151.151,0,0,1-.035,0,2,2,0,0,0-.318-.026,2,2,0,0,0-.3.023.2.2,0,0,1-.042,0,.206.206,0,0,1-.182-.108c-.159-.24-.328-.474-.494-.708-.063-.089-.115-.13-.179-.13a.313.313,0,0,0-.149.052c-.436.247-.874.5-1.31.75-.146.085-.169.163-.1.322.12.283.243.562.363.845.026.058.052.1,0,.169a1.974,1.974,0,0,0-.328.572.163.163,0,0,1-.156.117c-.273.019-.543.052-.816.074-.227.02-.289.078-.289.3,0,.511-.006,1.018-.006,1.528,0,.159.065.224.221.24.305.029.611.062.916.088a.143.143,0,0,1,.133.1,3.069,3.069,0,0,0,.338.585.141.141,0,0,1,.013.169c-.13.276-.256.555-.383.835a.213.213,0,0,0-.023.042.207.207,0,0,0,0,.139h5.07Zm-2.309,4.829h-.018a1.543,1.543,0,0,1-1.524-1.524v-.036a1.542,1.542,0,0,1,1.541-1.524h.018a1.542,1.542,0,0,1,1.524,1.56A1.541,1.541,0,0,1-48.053,191.933Z" fill="#cecece"/><path d="M-51.749,192.906c.014-.034.034-.077.056-.12l.141-.311-.053-.005-.31-.03a1.2,1.2,0,0,1-1.117-1.235l0-.77,0-.758a1.231,1.231,0,0,1,1.206-1.3c.087-.007.174-.016.26-.024l-.157-.363a1.2,1.2,0,0,1,.522-1.583l.3-.172c.338-.195.677-.39,1.016-.582a1.284,1.284,0,0,1,.641-.181,1.191,1.191,0,0,1,.995.552l.091.128.093.131c.053-.078.1-.155.159-.232a1.206,1.206,0,0,1,1.01-.566,1.3,1.3,0,0,1,.646.181c.167.094.333.19.5.285V169.777H-65.6v23.63h13.783A1.191,1.191,0,0,1-51.749,192.906Zm-9.925-17.389h12a.75.75,0,0,1,.75.75.75.75,0,0,1-.75.75h-12a.75.75,0,0,1-.75-.75A.75.75,0,0,1-61.674,175.517Zm0,5.66h12a.75.75,0,0,1,.75.75.75.75,0,0,1-.75.75h-12a.75.75,0,0,1-.75-.75A.75.75,0,0,1-61.674,181.177Zm7,7.17h-7a.75.75,0,0,1-.75-.75.75.75,0,0,1,.75-.75h7a.75.75,0,0,1,.75.75A.75.75,0,0,1-54.678,188.347Z" fill="#cecece"/><path d="M-45.293,191.712a.138.138,0,0,1,.131-.1h.009c.295-.022.591-.055.887-.084.152-.016.211-.078.214-.231l.02-1.527c0-.221-.049-.276-.267-.312-.292-.049-.585-.1-.88-.143a.156.156,0,0,1-.137-.1,2.873,2.873,0,0,0-.328-.572.167.167,0,0,1-.02-.195c.124-.26.241-.52.361-.783.023-.052.039-.107.055-.146a.21.21,0,0,0-.126-.205c-.455-.26-.907-.52-1.362-.776a.326.326,0,0,0-.154-.052c-.07,0-.125.043-.187.133-.162.237-.325.474-.484.715-.036.052-.069.088-.128.088a.151.151,0,0,1-.035,0,2,2,0,0,0-.318-.026,2,2,0,0,0-.3.023.2.2,0,0,1-.042,0,.206.206,0,0,1-.182-.108c-.159-.24-.328-.474-.494-.708-.063-.089-.115-.13-.179-.13a.313.313,0,0,0-.149.052c-.436.247-.874.5-1.31.75-.146.085-.169.163-.1.322.12.283.243.562.363.845.026.058.052.1,0,.169a1.974,1.974,0,0,0-.328.572.163.163,0,0,1-.156.117c-.273.019-.543.052-.816.074-.227.02-.289.078-.289.3,0,.511-.006,1.018-.006,1.528,0,.159.065.224.221.24.305.029.611.062.916.088a.143.143,0,0,1,.133.1,3.069,3.069,0,0,0,.338.585.141.141,0,0,1,.013.169c-.13.276-.256.555-.383.835a.213.213,0,0,0-.023.042.211.211,0,0,0,.12.273q.679.392,1.362.777a.31.31,0,0,0,.147.049c.067,0,.123-.041.184-.124.172-.231.341-.465.507-.7.034-.048.065-.084.122-.084l.028,0a2.28,2.28,0,0,0,.34.026,2.271,2.271,0,0,0,.319-.023.173.173,0,0,1,.032,0,.168.168,0,0,1,.147.088c.162.243.331.481.5.721.066.092.117.136.183.136a.356.356,0,0,0,.168-.061c.426-.244.848-.488,1.274-.731.172-.1.2-.179.117-.354-.124-.267-.247-.533-.371-.8a.122.122,0,0,1,0-.156A2.227,2.227,0,0,0-45.293,191.712Zm-2.76.221h-.018a1.543,1.543,0,0,1-1.524-1.524v-.036a1.542,1.542,0,0,1,1.541-1.524h.018a1.542,1.542,0,0,1,1.524,1.56A1.541,1.541,0,0,1-48.053,191.933Z" fill="#cecece"/></g></svg>