<svg xmlns="http://www.w3.org/2000/svg" width="19.87" height="28.51" viewBox="0 0 19.87 28.51"><g transform="translate(0 0.5)"><path d="M47.81,179.61H30.98a1.519,1.519,0,0,1-1.52-1.52v-20.6a1.519,1.519,0,0,1,1.52-1.52H47.81a1.519,1.519,0,0,1,1.52,1.52v20.6A1.519,1.519,0,0,1,47.81,179.61Z" transform="translate(-29.46 -151.6)" fill="#fff"/><path d="M41.58,153.53a2.2,2.2,0,0,0-4.36,0H34.43v4.97h9.93v-4.97Z" transform="translate(-29.46 -151.6)" fill="#024f6e" stroke="#fff" stroke-miterlimit="10" stroke-width="1"/><path d="M37.02,168.41l1.7,1.65,3.88-3.07" transform="translate(-29.46 -151.6)" fill="none" stroke="#024f6e" stroke-linecap="round" stroke-linejoin="round" stroke-miterlimit="10" stroke-width="1.656"/><circle cx="5.66" cy="5.66" r="5.66" transform="translate(4.66 10.89)" fill="none" stroke="#024f6e" stroke-linecap="round" stroke-linejoin="round" stroke-miterlimit="10" stroke-width="1.256"/></g></svg>