<svg xmlns="http://www.w3.org/2000/svg" width="22.387" height="23.01" viewBox="0 0 22.387 23.01"><g transform="translate(-559.821 -216.177)"><path d="M599.138,241.3c0-.008,0-.015,0-.023h0c0-.117,0-.235-.014-.355a4,4,0,0,0-3.287-3.6h0l-.026,0c-.05-.008-.1-.019-.149-.025-.033,0-.065-.006-.1-.009l-.081-.007c-.067-.005-.133-.01-.2-.012-.048,0-.1,0-.144,0s-.1,0-.145,0c-.066,0-.133.007-.2.012l-.081.007c-.033,0-.065,0-.1.009-.051.006-.1.017-.15.025l-.026,0h0a4,4,0,0,0-3.287,3.6c-.011.119-.014.238-.014.355h-.027a3.939,3.939,0,0,0,1.169,2.831,2.418,2.418,0,0,1,.743,1.726v.637h.019V248.1l1.073.636.349.615H595.8l.349-.615,1.072-.636v-2.263a2.418,2.418,0,0,1,.743-1.726,3.929,3.929,0,0,0,1.165-2.741h0C599.139,241.347,599.138,241.325,599.138,241.3Z" transform="translate(-16.932 -11.409)" fill="#024f6e"/><path d="M577.78,216.177v7.618H580.7v2.771l.07.762h1.16l2.457-3.533h7.054v-7.618Zm4.6,4.57h-1.524v-1.524h1.524Zm3.047,0H583.9v-1.524h1.524Zm3.047,0h-1.524v-1.524h1.524Z" transform="translate(-9.717)" fill="#024f6e"/><g transform="translate(559.821 220.747)"><path d="M559.821,233.336v-7.2l6.285,3.6Z" transform="translate(-559.821 -226.136)" fill="#024f6e"/></g><path d="M559.821,246.4v9.141h12.188V246.4Zm1.524,7.618V252.4l3.049-2.472,1.941,2.089,1.78-1.544,2.371,1.866v1.676Z" transform="translate(0 -16.351)" fill="#024f6e"/></g></svg>