<svg xmlns="http://www.w3.org/2000/svg" width="38" height="25.28" viewBox="0 0 38 25.28">
  <g id="Group_1439" data-name="Group 1439" transform="translate(-293.136 -392.382)">
    <g id="Group_1463" data-name="Group 1463">
      <g id="Group_1438" data-name="Group 1438" transform="translate(293.136 392.382)">
        <path id="Rectangle_1605" data-name="Rectangle 1605" d="M2.35,0H3.773a2.35,2.35,0,0,1,2.35,2.35v0A2.35,2.35,0,0,1,3.773,4.7H2.35A2.35,2.35,0,0,1,0,2.35v0A2.35,2.35,0,0,1,2.35,0Z" transform="translate(6.818 16.501)" fill="#024f6e"/>
        <path id="Path_1081" data-name="Path 1081" d="M327.615,392.382H296.657a3.525,3.525,0,0,0-3.521,3.521v18.238a3.525,3.525,0,0,0,3.521,3.521h30.959a3.525,3.525,0,0,0,3.521-3.521V395.9A3.525,3.525,0,0,0,327.615,392.382Zm1.964,21.759a1.967,1.967,0,0,1-1.964,1.964H296.657a1.966,1.966,0,0,1-1.964-1.964V404.41H329.58Zm0-15.068H294.693V395.9a1.967,1.967,0,0,1,1.964-1.964h30.959a1.967,1.967,0,0,1,1.964,1.964Z" transform="translate(-293.136 -392.382)" fill="#024f6e"/>
      </g>
    </g>
  </g>
</svg>
