<svg xmlns="http://www.w3.org/2000/svg" width="21" height="21.465" viewBox="0 0 21 21.465"><g transform="translate(-7 -6.768)"><path d="M11.063.563A10.616,10.616,0,0,0,.563,11.295a10.616,10.616,0,0,0,10.5,10.732,10.616,10.616,0,0,0,10.5-10.732A10.616,10.616,0,0,0,11.063.563Zm5.148,13.55a.528.528,0,0,1,0,.736l-1.677,1.709a.5.5,0,0,1-.72,0l-2.752-2.839L8.306,16.557a.5.5,0,0,1-.72,0L5.914,14.843a.528.528,0,0,1,0-.736l2.777-2.813L5.914,8.478a.528.528,0,0,1,0-.736L7.591,6.028a.5.5,0,0,1,.72,0l2.752,2.843,2.756-2.839a.5.5,0,0,1,.72,0l1.677,1.714a.528.528,0,0,1,0,.736l-2.782,2.813Z" transform="translate(6.438 6.205)" fill="#024f6e"/></g></svg>