<svg xmlns="http://www.w3.org/2000/svg" width="18" height="6.553" viewBox="0 0 18 6.553">
  <g id="Group_1475" data-name="Group 1475" transform="translate(-325 -384.947)">
    <rect id="Rectangle_1633" data-name="Rectangle 1633" width="14.918" height="1.54" transform="translate(326.066 387.464)"/>
    <path id="Path_1784" data-name="Path 1784" d="M1384.71,551.287h0a.77.77,0,0,1,.006-1.089l1.98-1.959-1.98-1.959a.77.77,0,0,1-.006-1.089h0a.77.77,0,0,1,1.089-.006l3.085,3.053-3.085,3.054A.77.77,0,0,1,1384.71,551.287Z" transform="translate(-1045.884 -160.016)"/>
    <path id="Path_1787" data-name="Path 1787" d="M1220.526,551.293l-3.085-3.054,3.085-3.053a.77.77,0,0,1,1.089.006h0a.77.77,0,0,1-.006,1.089l-1.98,1.959,1.98,1.959a.77.77,0,0,1,.006,1.089h0A.77.77,0,0,1,1220.526,551.293Z" transform="translate(-892.441 -160.016)"/>
  </g>
</svg>
