<?xml version="1.0" encoding="UTF-8"?>
<svg width="19px" height="17px" viewBox="0 0 19 17" version="1.1" xmlns="http://www.w3.org/2000/svg" xmlns:xlink="http://www.w3.org/1999/xlink">
    <!-- Generator: Sketch 61 (89581) - https://sketch.com -->
    <title>envelope5</title>
    <desc>Created with Sketch.</desc>
    <g id="LoginPage" stroke="none" stroke-width="1" fill="none" fill-rule="evenodd">
        <g transform="translate(-856.000000, -562.000000)" fill="#000000" id="Group-8">
            <g transform="translate(576.000000, 0.000000)">
                <g id="Group-7">
                    <g id="envelope5" transform="translate(280.000000, 563.000000)">
                        <path d="M18.5017055,0.456842105 C18.1694658,0.120921053 17.7700753,-0.0469736842 17.3036644,-0.0469736842 L1.69646575,-0.0469736842 C1.22992466,-0.0469736842 0.830534247,0.120921053 0.498294521,0.456842105 C0.166054795,0.792763158 0,1.19657895 0,1.66828947 L0,13.3319737 C0,13.8036842 0.166054795,14.2072368 0.498294521,14.5431579 C0.830534247,14.8793421 1.22992466,15.0471053 1.69646575,15.0471053 L17.3036644,15.0471053 C17.7700753,15.0471053 18.1694658,14.8793421 18.5017055,14.5431579 C18.8340753,14.2072368 19,13.8035526 19,13.3319737 L19,1.66828947 C19,1.19657895 18.8340753,0.792763158 18.5017055,0.456842105 L18.5017055,0.456842105 Z M17.6426712,13.3317105 C17.6426712,13.4246053 17.6090959,13.505 17.5419452,13.5728947 C17.4747945,13.6407895 17.3952808,13.6746053 17.3035342,13.6746053 L1.69633562,13.6746053 C1.6044589,13.6746053 1.52494521,13.6407895 1.45779452,13.5728947 C1.39064384,13.505 1.35706849,13.4246053 1.35706849,13.3317105 L1.35706849,5.09868421 C1.58324658,5.35592105 1.82712329,5.59184211 2.08869863,5.80618421 C3.98310274,7.27842105 5.48865753,8.48618421 6.60549315,9.42960526 C6.9659726,9.73697368 7.25930137,9.97631579 7.48547945,10.1478947 C7.71165753,10.3194737 8.01734932,10.4926316 8.40255479,10.6677632 C8.78776027,10.8428947 9.15006164,10.9302632 9.48932877,10.9302632 L9.5,10.9302632 L9.5105411,10.9302632 C9.84967808,10.9302632 10.2122397,10.8428947 10.5973151,10.6677632 C10.9826507,10.4926316 11.2884726,10.3194737 11.5146507,10.1478947 C11.7406986,9.97631579 12.0341575,9.73697368 12.394637,9.42960526 C13.5114726,8.48618421 15.0168973,7.27842105 16.9113014,5.80618421 C17.1728767,5.59184211 17.4168836,5.35592105 17.6428014,5.09868421 L17.6428014,13.3317105 L17.6426712,13.3317105 Z M17.6426712,1.94697368 L17.6426712,2.06486842 C17.6426712,2.48644737 17.4784384,2.95644737 17.1498425,3.47447368 C16.8212466,3.99263158 16.4658425,4.40539474 16.0842808,4.71263158 C14.7199247,5.79907895 13.302863,6.93171053 11.8324452,8.11092105 C11.7900205,8.14657895 11.6662603,8.25210526 11.4612945,8.42710526 C11.2564589,8.60223684 11.0937877,8.73644737 10.9735411,8.82921053 C10.8532945,8.92223684 10.6962192,9.03473684 10.5017945,9.16684211 C10.3073699,9.29894737 10.1289521,9.39736842 9.96641096,9.46157895 C9.80386986,9.52578947 9.65186986,9.55789474 9.5105411,9.55789474 L9.5,9.55789474 L9.48932877,9.55789474 C9.348,9.55789474 9.19613014,9.52578947 9.0334589,9.46157895 C8.87091781,9.39736842 8.69236986,9.29894737 8.49807534,9.16684211 C8.30378082,9.03473684 8.14644521,8.92223684 8.02632877,8.82921053 C7.90621233,8.73644737 7.7435411,8.60223684 7.53857534,8.42710526 C7.33360959,8.25210526 7.20984932,8.14657895 7.16742466,8.11092105 C5.69726712,6.93171053 4.28007534,5.79907895 2.91584932,4.71263158 C1.87670548,3.88368421 1.35719863,2.86881579 1.35719863,1.66815789 C1.35719863,1.57526316 1.39077397,1.49486842 1.45792466,1.42697368 C1.52507534,1.35907895 1.60458904,1.32513158 1.69646575,1.32513158 L17.3036644,1.32513158 C17.3601438,1.35723684 17.4095959,1.36618421 17.4521507,1.35197368 C17.4945753,1.3375 17.5263288,1.36434211 17.547411,1.43223684 C17.5686233,1.50013158 17.5880137,1.53223684 17.6057123,1.52868421 C17.623411,1.52513158 17.6340822,1.56973684 17.6375959,1.66276316 C17.6408493,1.75565789 17.6426712,1.80236842 17.6426712,1.80236842 L17.6426712,1.94697368 L17.6426712,1.94697368 Z" id="Shape" fill="#EDF0F4"></path>
                    </g>
                </g>
            </g>
        </g>
    </g>
</svg>