<svg xmlns="http://www.w3.org/2000/svg" width="29.25" height="23.323" viewBox="0 0 29.25 23.323"><path d="M23.406,8.733l-.375.654a.565.565,0,0,1-.69.247,5.051,5.051,0,0,1-1.467-.85.568.568,0,0,1-.128-.718l.375-.654a3.946,3.946,0,0,1-.727-1.252H19.64a.564.564,0,0,1-.558-.471,5.149,5.149,0,0,1,0-1.7.568.568,0,0,1,.558-.475h.754a3.946,3.946,0,0,1,.727-1.252l-.375-.654a.562.562,0,0,1,.128-.718,5.111,5.111,0,0,1,1.467-.85.565.565,0,0,1,.69.247l.375.654a4.062,4.062,0,0,1,1.449,0L25.23.291a.565.565,0,0,1,.69-.247,5.051,5.051,0,0,1,1.467.85.568.568,0,0,1,.128.718l-.375.654a3.946,3.946,0,0,1,.727,1.252h.754a.564.564,0,0,1,.558.471,5.149,5.149,0,0,1,0,1.7.568.568,0,0,1-.558.475h-.754a3.946,3.946,0,0,1-.727,1.252l.375.654a.562.562,0,0,1-.128.718,5.111,5.111,0,0,1-1.467.85.565.565,0,0,1-.69-.247l-.375-.654a4.062,4.062,0,0,1-1.449,0Zm-.48-2.688A1.707,1.707,0,0,0,25.34,3.632,1.707,1.707,0,0,0,22.926,6.045Zm-5.27,7.034,1.54.768a1.1,1.1,0,0,1,.48,1.33,10.79,10.79,0,0,1-1.947,3.008,1.093,1.093,0,0,1-1.385.242l-1.33-.768a7.852,7.852,0,0,1-2.509,1.449v1.536a1.094,1.094,0,0,1-.9,1.079,10.279,10.279,0,0,1-3.469,0,1.1,1.1,0,0,1-.914-1.079V19.108a7.937,7.937,0,0,1-2.509-1.449l-1.33.763A1.094,1.094,0,0,1,2,18.18a10.774,10.774,0,0,1-1.929-3,1.1,1.1,0,0,1,.48-1.33l1.522-.768a7.918,7.918,0,0,1,0-2.9L.548,9.409a1.09,1.09,0,0,1-.48-1.325A10.731,10.731,0,0,1,2,5.076a1.093,1.093,0,0,1,1.385-.242l1.33.768A7.852,7.852,0,0,1,7.221,4.153V2.613a1.089,1.089,0,0,1,.9-1.074,10.424,10.424,0,0,1,3.474,0,1.1,1.1,0,0,1,.914,1.079V4.148A7.937,7.937,0,0,1,15.014,5.6l1.33-.768a1.094,1.094,0,0,1,1.385.242,10.717,10.717,0,0,1,1.924,3.008,1.092,1.092,0,0,1-.457,1.33l-1.54.768a7.943,7.943,0,0,1,0,2.9Zm-5.375.964c2.706-3.519-1.312-7.537-4.831-4.831C4.744,12.732,8.762,16.75,12.281,14.044Zm11.125,8.351-.375.654a.565.565,0,0,1-.69.247,5.051,5.051,0,0,1-1.467-.85.568.568,0,0,1-.128-.718l.375-.654a3.946,3.946,0,0,1-.727-1.252H19.64a.564.564,0,0,1-.558-.471,5.149,5.149,0,0,1,0-1.7.568.568,0,0,1,.558-.475h.754a3.946,3.946,0,0,1,.727-1.252l-.375-.654a.562.562,0,0,1,.128-.718,5.111,5.111,0,0,1,1.467-.85.565.565,0,0,1,.69.247l.375.654a4.062,4.062,0,0,1,1.449,0l.375-.654a.565.565,0,0,1,.69-.247,5.051,5.051,0,0,1,1.467.85.568.568,0,0,1,.128.718l-.375.654a3.946,3.946,0,0,1,.727,1.252h.754a.564.564,0,0,1,.558.471,5.149,5.149,0,0,1,0,1.7.568.568,0,0,1-.558.475h-.754a3.946,3.946,0,0,1-.727,1.252l.375.654a.562.562,0,0,1-.128.718,5.111,5.111,0,0,1-1.467.85.565.565,0,0,1-.69-.247l-.375-.654A4.061,4.061,0,0,1,23.406,22.395Zm-.48-2.692a1.707,1.707,0,0,0,2.413-2.413A1.707,1.707,0,0,0,22.926,19.7Z" transform="translate(0.001 -0.008)" fill="#cecece"/></svg>