<svg xmlns="http://www.w3.org/2000/svg" width="24.6" height="24.6" viewBox="0 0 24.6 24.6"><g transform="translate(75.557 -8.193)"><rect width="4.199" height="2.049" transform="translate(-71.421 16.711)" fill="#fff"/><rect width="4.199" height="2.049" transform="translate(-71.421 20.696)" fill="#fff"/><rect width="11.2" height="2.049" transform="translate(-65.973 16.711)" fill="#fff"/><rect width="11.2" height="2.049" transform="translate(-65.973 20.696)" fill="#fff"/><rect width="5.802" height="2.049" transform="translate(-60.575 24.981)" fill="#fff"/><path d="M-52.985,8.193H-73.531a2.029,2.029,0,0,0-2.026,2.026V30.767a2.029,2.029,0,0,0,2.026,2.026h20.546a2.029,2.029,0,0,0,2.028-2.026V10.219A2.029,2.029,0,0,0-52.985,8.193Zm-2.923,1.742-4.014,2.824L-63,9.935Zm-7.58,0-3.428,2.843-4.065-2.843ZM-52.7,30.767a.285.285,0,0,1-.286.284H-73.531a.285.285,0,0,1-.285-.284V10.219a.279.279,0,0,1,.25-.27l6.726,4.7,3.558-2.95,3.234,2.967,6.734-4.736h.328a.286.286,0,0,1,.286.285Z" transform="translate(0 0)" fill="#fff"/></g></svg>