<svg xmlns="http://www.w3.org/2000/svg" width="19.233" height="26.534" viewBox="0 0 19.233 26.534"><g transform="translate(-520.719 -389.346)"><path d="M541.329,391.659h-1.995a2.49,2.49,0,0,0-4.967,0h-2v4h8.958Z" transform="translate(-6.515)" fill="#fff"/><path d="M537.748,395.906h-1.695v2.453h1.391v18.3H523.226v-18.3h1.391v-2.453h-1.694a2.2,2.2,0,0,0-2.2,2.2v19.233a2.2,2.2,0,0,0,2.2,2.2h14.825a2.2,2.2,0,0,0,2.2-2.2V398.11A2.205,2.205,0,0,0,537.748,395.906Z" transform="translate(0 -3.668)" fill="#fff"/><rect width="4.326" height="0.964" transform="translate(531.536 402.293)" fill="#fff"/><rect width="4.326" height="0.964" transform="translate(531.536 399.785)" fill="#fff"/><rect width="4.326" height="0.964" transform="translate(531.536 397.278)" fill="#fff"/><path d="M535.316,407.893a.44.44,0,0,0-.441-.441h-4.44a.44.44,0,0,0-.441.441v5a.44.44,0,0,0,.441.441h4.44a.44.44,0,0,0,.441-.441Zm-.882,4.555h-3.559v-4.114h3.559Z" transform="translate(-5.186 -10.124)" fill="#fff"/><rect width="4.326" height="0.964" transform="translate(531.536 410.081)" fill="#fff"/><rect width="4.326" height="0.964" transform="translate(531.536 407.574)" fill="#fff"/><rect width="4.326" height="0.964" transform="translate(531.536 405.066)" fill="#fff"/><path d="M534.875,425.118h-4.44a.44.44,0,0,0-.441.441v5a.44.44,0,0,0,.441.441h4.44a.44.44,0,0,0,.441-.441v-5A.44.44,0,0,0,534.875,425.118Zm-.441,5h-3.559V426h3.559Z" transform="translate(-5.186 -20.001)" fill="#fff"/></g></svg>