<?xml version="1.0" standalone="no"?>
<!DOCTYPE svg PUBLIC "-//W3C//DTD SVG 20010904//EN"
 "http://www.w3.org/TR/2001/REC-SVG-20010904/DTD/svg10.dtd">
<svg version="1.0" xmlns="http://www.w3.org/2000/svg"
 width="40.000000pt" height="40.000000pt" viewBox="0 0 40.000000 40.000000"
 preserveAspectRatio="xMidYMid meet">

<g transform="translate(0.000000,40.000000) scale(0.100000,-0.100000)"
fill="#000000" stroke="none">
<path d="M42 362 c-9 -7 -12 -47 -10 -168 l3 -159 154 -3 c104 -2 158 1 167 9
22 18 20 292 -2 313 -13 13 -42 16 -157 16 -78 0 -148 -4 -155 -8z m66 -48
c34 -26 35 -27 64 -9 27 15 31 16 47 1 23 -21 25 -20 69 9 20 14 40 25 44 25
5 0 8 -65 8 -145 l0 -145 -145 0 -145 0 0 145 c0 103 3 145 12 145 6 0 27 -12
46 -26z m66 11 c-10 -8 -23 -14 -29 -14 -5 0 -19 6 -29 14 -18 14 -16 15 29
15 45 0 47 -1 29 -15z m102 0 c-25 -19 -40 -19 -56 0 -11 13 -6 15 31 15 41
-1 43 -2 25 -15z"/>
<path d="M90 234 c0 -10 7 -14 22 -12 32 5 35 28 4 28 -17 0 -26 -5 -26 -16z"/>
<path d="M163 238 c2 -9 26 -13 72 -13 46 0 70 4 73 13 3 9 -16 12 -73 12 -57
0 -76 -3 -72 -12z"/>
<path d="M90 180 c0 -5 11 -10 25 -10 14 0 25 5 25 10 0 6 -11 10 -25 10 -14
0 -25 -4 -25 -10z"/>
<path d="M160 180 c0 -6 32 -10 75 -10 43 0 75 4 75 10 0 6 -32 10 -75 10 -43
0 -75 -4 -75 -10z"/>
<path d="M240 120 c0 -5 16 -10 35 -10 19 0 35 5 35 10 0 6 -16 10 -35 10 -19
0 -35 -4 -35 -10z"/>
</g>
</svg>
