<?xml version="1.0" encoding="UTF-8"?>
<svg width="25px" height="25px" viewBox="0 0 25 25" version="1.1" xmlns="http://www.w3.org/2000/svg" xmlns:xlink="http://www.w3.org/1999/xlink">
    <!-- Generator: Sketch 56.3 (81716) - https://sketch.com -->
    <title>Shape</title>
    <desc>Created with Sketch.</desc>
    <g id="Page-1" stroke="none" stroke-width="1" fill="none" fill-rule="evenodd">
        <g id="Desktop-HD" transform="translate(-736.000000, -537.000000)" fill="#CECECE" fill-rule="nonzero">
            <g id="gear" transform="translate(736.000000, 537.000000)">
                <path d="M20.88,3.217 C20.83,3.337 20.78,3.507 20.71,3.667 C20.34,4.477 19.98,5.277 19.6,6.077 C19.4885843,6.2690263 19.5127656,6.51083871 19.66,6.677 C20.0633171,7.22281648 20.4022302,7.81339786 20.67,8.437 C20.7330387,8.61832883 20.8984431,8.74435126 21.09,8.757 C22,8.887 22.9,9.047 23.8,9.197 C24.47,9.307 24.63,9.477 24.62,10.157 C24.6,11.727 24.58,13.287 24.56,14.857 C24.55,15.327 24.37,15.517 23.9,15.567 C22.99,15.657 22.08,15.757 21.17,15.827 C20.9773624,15.8145085 20.800604,15.9337176 20.74,16.117 C20.4874614,16.7810376 20.1332323,17.4017821 19.69,17.957 C19.5720501,18.0939221 19.5678551,18.2952843 19.68,18.437 C20.06,19.247 20.44,20.067 20.82,20.887 C21.07,21.427 20.99,21.667 20.46,21.977 C19.15,22.727 17.85,23.477 16.54,24.227 C16.02,24.527 15.8,24.477 15.46,23.997 C14.94,23.257 14.42,22.527 13.92,21.777 C13.8124549,21.580225 13.5903188,21.4752152 13.37,21.517 C12.6965411,21.6137692 12.0124728,21.6103994 11.34,21.507 C11.11,21.467 11,21.587 10.88,21.757 C10.37,22.477 9.85,23.197 9.32,23.907 C9.01,24.327 8.75,24.397 8.3,24.137 C6.9,23.347 5.50333333,22.5503333 4.11,21.747 C3.92564507,21.6753524 3.7841064,21.5234317 3.72566602,21.3344744 C3.66722564,21.1455172 3.69828331,20.9402161 3.81,20.777 C4.2,19.917 4.59,19.057 4.99,18.207 C5.09256197,18.0437534 5.07632249,17.8326401 4.95,17.687 C4.53832848,17.1269833 4.18956097,16.5233472 3.91,15.887 C3.85830947,15.7019547 3.69205898,15.5721982 3.5,15.567 C2.56,15.487 1.62,15.387 0.68,15.297 C0.2,15.247 -2.48689958e-14,15.047 -2.48689958e-14,14.557 C-2.48689958e-14,12.987 0.02,11.427 0.02,9.857 C0.02,9.167 0.21,8.987 0.91,8.927 C1.75,8.857 2.58,8.757 3.42,8.697 C3.64222222,8.697 3.83777778,8.55033333 3.9,8.337 C4.13529974,7.69771133 4.4767572,7.10269634 4.91,6.577 C5.08,6.377 5,6.237 4.92,6.057 C4.55,5.187 4.17,4.327 3.8,3.457 C3.59,2.967 3.66,2.727 4.11,2.467 C5.45,1.697 6.8,0.917 8.14,0.157 C8.6,-0.103 8.83,-0.053 9.15,0.397 C9.66,1.117 10.18,1.837 10.67,2.577 C10.8040919,2.82434207 11.0845697,2.95441873 11.36,2.897 C11.9899132,2.8003251 12.6311393,2.80369997 13.26,2.907 C13.51,2.957 13.63,2.837 13.76,2.647 C14.25,1.907 14.75,1.177 15.25,0.447 C15.56,-0.003 15.82,-0.073 16.3,0.197 C17.7,0.987 19.09,1.787 20.49,2.587 C20.7390803,2.69463428 20.8947238,2.94605844 20.88,3.217 Z M12.19,16.797 C14.1190026,16.8192327 15.8694523,15.6713801 16.6179568,13.8933794 C17.3664613,12.1153787 16.964008,10.0611949 15.5999066,8.69709345 C14.2358051,7.33299201 12.1816213,6.93053873 10.4036206,7.6790432 C8.62561989,8.42754767 7.47776728,10.1779974 7.5,12.107 C7.53234729,14.6836979 9.61330215,16.7646527 12.19,16.797 L12.19,16.797 Z" id="Shape"></path>
            </g>
        </g>
    </g>
</svg>