<svg xmlns="http://www.w3.org/2000/svg" width="24.62" height="24.414" viewBox="0 0 24.62 24.414"><path d="M47.98,285.55c-.05.12-.1.29-.17.45-.37.81-.73,1.61-1.11,2.41a.515.515,0,0,0,.06.6,8.812,8.812,0,0,1,1.01,1.76.478.478,0,0,0,.42.32c.91.13,1.81.29,2.71.44.67.11.83.28.82.96-.02,1.57-.04,3.13-.06,4.7-.01.47-.19.66-.66.71-.91.09-1.82.19-2.73.26a.424.424,0,0,0-.43.29,6.855,6.855,0,0,1-1.05,1.84.377.377,0,0,0-.01.48c.38.81.76,1.63,1.14,2.45.25.54.17.78-.36,1.09-1.31.75-2.61,1.5-3.92,2.25-.52.3-.74.25-1.08-.23-.52-.74-1.04-1.47-1.54-2.22a.517.517,0,0,0-.55-.26,6.9,6.9,0,0,1-2.03-.01c-.23-.04-.34.08-.46.25-.51.72-1.03,1.44-1.56,2.15-.31.42-.57.49-1.02.23q-2.1-1.185-4.19-2.39a.648.648,0,0,1-.3-.97c.39-.86.78-1.72,1.18-2.57a.438.438,0,0,0-.04-.52,9.47,9.47,0,0,1-1.04-1.8.438.438,0,0,0-.41-.32c-.94-.08-1.88-.18-2.82-.27-.48-.05-.68-.25-.68-.74,0-1.57.02-3.13.02-4.7,0-.69.19-.87.89-.93.84-.07,1.67-.17,2.51-.23a.5.5,0,0,0,.48-.36,6.057,6.057,0,0,1,1.01-1.76c.17-.2.09-.34.01-.52-.37-.87-.75-1.73-1.12-2.6-.21-.49-.14-.73.31-.99,1.34-.77,2.69-1.55,4.03-2.31.46-.26.69-.21,1.01.24.51.72,1.03,1.44,1.52,2.18a.637.637,0,0,0,.69.32,6.055,6.055,0,0,1,1.9.01c.25.05.37-.07.5-.26.49-.74.99-1.47,1.49-2.2.31-.45.57-.52,1.05-.25,1.4.79,2.79,1.59,4.19,2.39A.648.648,0,0,1,47.98,285.55Zm-8.69,13.58a4.745,4.745,0,1,0-4.69-4.69A4.75,4.75,0,0,0,39.29,299.13Z" transform="translate(-27.1 -282.333)" fill="#fafbfb"/></svg>