<svg xmlns="http://www.w3.org/2000/svg" width="24.62" height="24.62" viewBox="0 0 24.62 24.62"><path d="M319.668,1512.006h0a12.268,12.268,0,0,0-2.335-6.827c-.139-.192-.285-.381-.434-.562-.259-.316-.538-.625-.83-.916a12.269,12.269,0,0,0-8.306-3.6c-.264-.008-.532-.009-.8,0a12.269,12.269,0,0,0-8.306,3.6c-.292.292-.571.6-.829.916-.149.182-.3.371-.435.563a12.267,12.267,0,0,0-2.335,6.827c0,.132-.006.266-.006.4s0,.267.006.4a12.3,12.3,0,0,0,11.9,11.905c.131,0,.265.006.4.006s.267,0,.4-.006a12.3,12.3,0,0,0,11.905-11.9c0-.132.006-.266.006-.4S319.672,1512.138,319.668,1512.006Zm-8.615,7.021c-.147.422-.309.824-.482,1.2a7.026,7.026,0,0,1-1.548,2.253,2.976,2.976,0,0,1-.98.616v-4.287A29.776,29.776,0,0,1,311.053,1519.028Zm-3.01-1.451v-4.493h4.02a21.429,21.429,0,0,1-.647,4.749A31.211,31.211,0,0,0,308.043,1517.577Zm3.641,3.165a14.354,14.354,0,0,0,.6-1.532,29.419,29.419,0,0,1,3.057.686,10.929,10.929,0,0,1-5.077,3.07A9,9,0,0,0,311.684,1520.742Zm-1.416-18.9a10.932,10.932,0,0,1,5.07,3.061,29.405,29.405,0,0,1-3.053.685,14.289,14.289,0,0,0-.6-1.522A9,9,0,0,0,310.268,1501.844Zm1.794,9.882h-4.02v-4.5a31.1,31.1,0,0,0,3.37-.256A21.435,21.435,0,0,1,312.063,1511.726Zm-4.02-5.732v-4.276a2.98,2.98,0,0,1,.98.617,7.025,7.025,0,0,1,1.548,2.253c.172.37.333.769.479,1.185A29.746,29.746,0,0,1,308.043,1505.993Zm10.252,7.091a10.875,10.875,0,0,1-2.09,5.776,30.472,30.472,0,0,0-3.57-.842,22.851,22.851,0,0,0,.655-4.935Zm0-1.358h-5a22.851,22.851,0,0,0-.658-4.945,30.508,30.508,0,0,0,3.566-.84A10.874,10.874,0,0,1,318.3,1511.726Zm-16.858,1.358a22.849,22.849,0,0,0,.655,4.935,30.462,30.462,0,0,0-3.57.842,10.875,10.875,0,0,1-2.09-5.776Zm.658-6.3a22.854,22.854,0,0,0-.658,4.945h-5a10.874,10.874,0,0,1,2.1-5.785A30.506,30.506,0,0,0,302.095,1506.781Zm.345,12.429a14.339,14.339,0,0,0,.6,1.532,9,9,0,0,0,1.416,2.224,10.929,10.929,0,0,1-5.077-3.07A29.375,29.375,0,0,1,302.44,1519.209Zm.226-6.125h4.02v4.493a31.2,31.2,0,0,0-3.373.256A21.438,21.438,0,0,1,302.665,1513.084Zm4.02,5.721v4.287a2.977,2.977,0,0,1-.98-.616,7.025,7.025,0,0,1-1.548-2.253c-.173-.372-.335-.773-.482-1.2A29.782,29.782,0,0,1,306.685,1518.805Zm0-11.583v4.5h-4.02a21.432,21.432,0,0,1,.649-4.76A31.1,31.1,0,0,0,306.685,1507.222Zm-3.641-3.154h0a14.338,14.338,0,0,0-.6,1.522,29.406,29.406,0,0,1-3.053-.685,10.932,10.932,0,0,1,5.07-3.061A9,9,0,0,0,303.044,1504.068Zm3.641-2.351v4.276a29.745,29.745,0,0,1-3.007-.222c.146-.417.307-.815.479-1.185a7.025,7.025,0,0,1,1.548-2.253A2.981,2.981,0,0,1,306.685,1501.717Z" transform="translate(-295.054 -1500.095)" fill="#fff"/></svg>