<?xml version="1.0" encoding="UTF-8"?>
<svg width="33px" height="33px" viewBox="0 0 33 33" version="1.1" xmlns="http://www.w3.org/2000/svg" xmlns:xlink="http://www.w3.org/1999/xlink">
    <!-- Generator: Sketch 56.3 (81716) - https://sketch.com -->
    <title>Path_1772</title>
    <desc>Created with Sketch.</desc>
    <g id="Page-1" stroke="none" stroke-width="1" fill="none" fill-rule="evenodd">
        <g id="Desktop-HD" transform="translate(-745.000000, -535.000000)" fill="#5F6369" fill-rule="nonzero">
            <g id="globe_real" transform="translate(744.000000, 535.000000)">
                <path d="M17.237,0 C8.26789566,0 0.997,7.27089566 0.997,16.24 C0.997,25.2091043 8.26789566,32.48 17.237,32.48 C26.2061043,32.48 33.477,25.2091043 33.477,16.24 C33.4670799,7.27500791 26.2019921,0.00992008396 17.237,0 L17.237,0 Z M21.214,2.005 C21.1694113,1.99568963 21.1258624,1.98195497 21.084,1.964 C21.131158,1.97197405 21.1778839,1.98232051 21.224,1.995 L21.229,1.995 L21.229,1.995 C21.2241004,1.99641677 21.2188996,1.99641677 21.214,1.995 L21.182,1.99 C21.1945197,1.99271208 21.2064018,1.99780438 21.217,2.005 L21.214,2.005 Z M20.519,1.843 C20.565,1.851 20.612,1.843 20.657,1.858 C20.825,1.898 20.827,1.901 20.829,1.904 C20.8208195,1.90625695 20.8121805,1.90625695 20.804,1.904 C20.8135664,1.9060843 20.8227007,1.90980569 20.831,1.915 C20.8237969,1.91695475 20.8162031,1.91695475 20.809,1.915 C20.822312,1.91745351 20.8353679,1.92113593 20.848,1.926 C20.8070081,1.92298133 20.7662556,1.91730271 20.726,1.909 C20.71,1.909 20.567,1.873 20.561,1.87 C20.555,1.867 20.561,1.87 20.627,1.87 C20.594,1.861 20.558,1.853 20.523,1.843 L20.519,1.843 Z M20.635,1.85 C20.6297665,1.84913946 20.6247032,1.84745169 20.62,1.845 C20.6742617,1.84555122 20.7281565,1.85397226 20.78,1.87 C20.8058924,1.87524258 20.8313109,1.88260059 20.856,1.892 C20.849,1.893 20.656,1.855 20.637,1.85 L20.635,1.85 Z M19.174,2.224 C19.184,2.233 19.199,2.23 19.21,2.239 L19.21,2.244 C19.2106001,2.24663291 19.2106001,2.24936709 19.21,2.252 C19.3344375,2.37889959 19.488346,2.4730311 19.658,2.526 C19.6533091,2.52941335 19.6477786,2.5314873 19.642,2.532 L19.642,2.532 L19.593,2.52 L19.593,2.52 C19.541,2.52 19.384,2.489 19.374,2.487 L19.385,2.487 L19.385,2.487 C19.355,2.487 19.352,2.479 19.343,2.466 L19.336,2.466 C19.3489508,2.47644418 19.3600991,2.48894374 19.369,2.503 C19.288,2.486 19.269,2.475 19.292,2.454 C19.2476237,2.44922523 19.2043594,2.43705715 19.164,2.418 L19.149,2.404 L19.149,2.404 C19.1528376,2.3712746 19.1312011,2.34098349 19.099,2.334 C19.0872175,2.32967654 19.0782357,2.31994688 19.0748664,2.30785692 C19.071497,2.29576695 19.0741519,2.28279427 19.082,2.273 C19.058,2.265 19.057,2.259 19.061,2.247 C19.0413762,2.24990304 19.0214328,2.24446393 19.006,2.232 C19.0067094,2.21974051 19.0090638,2.20763205 19.013,2.196 C18.978,2.189 18.991,2.175 18.994,2.172 C18.9859065,2.17068695 18.978311,2.16723447 18.972,2.162 C18.9734967,2.15761066 18.9762853,2.15377629 18.98,2.151 C18.959,2.151 18.959,2.151 18.955,2.14 L18.955,2.14 C18.9422813,2.13685318 18.9298919,2.13250013 18.918,2.127 L18.918,2.122 C18.9249455,2.11774495 18.9316246,2.11306958 18.938,2.108 C18.9344221,2.10262468 18.9296253,2.09817043 18.924,2.095 C18.927358,2.08562496 18.927358,2.07537504 18.924,2.066 L18.937,2.066 C18.964,2.056 18.948,2.048 18.937,2.042 C18.984,2.042 19.022,2.006 19.07,2.007 C19.0638787,2.00543153 19.0581102,2.00271694 19.053,1.999 L19.06,1.999 C19.106,1.999 19.16,1.999 19.178,2.016 C19.196,2.033 19.191,2.036 19.131,2.065 C19.071,2.094 19.112,2.123 19.131,2.133 C19.15,2.143 19.164,2.171 19.137,2.179 C19.16,2.183 19.161,2.209 19.177,2.224 L19.174,2.224 Z M15.119,2.285 L15.06,2.321 L15.09,2.33 L15.022,2.361 L15.055,2.361 C14.897,2.434 14.897,2.434 14.862,2.44 C14.8802361,2.42799224 14.8967254,2.41352205 14.911,2.397 C14.8993928,2.37940402 14.8896724,2.36063367 14.882,2.341 C14.803,2.382 14.717,2.408 14.635,2.441 C14.6931415,2.43271806 14.7523643,2.43646203 14.809,2.452 L14.809,2.481 C14.647,2.534 14.48,2.563 14.315,2.605 C14.229462,2.62500694 14.1418434,2.63474234 14.054,2.634 L14.054,2.644 C14.0210428,2.65108182 13.9869572,2.65108182 13.954,2.644 C13.9604469,2.622072 13.9742109,2.60301414 13.993,2.59 C13.716,2.702 13.428,2.782 13.147,2.88 L13.171,2.86 C13.1520883,2.86259056 13.1329117,2.86259056 13.114,2.86 L13.137,2.842 C13.1057177,2.85844676 13.071927,2.86959771 13.037,2.875 L13.028,2.881 L13.028,2.876 L13.035,2.876 L13.035,2.876 C12.913,2.899 12.911,2.9 12.895,2.91 L12.895,2.91 C12.838,2.945 12.767,2.941 12.71,2.975 L12.739,2.975 C12.645672,3.02860163 12.5475879,3.07345923 12.446,3.109 L12.446,3.109 L12.433,3.116 L12.311,3.167 L12.292,3.175 L12.298,3.175 L12.247,3.195 L12.247,3.195 L12.227,3.205 L12.236,3.199 L12.245,3.199 C12.137,3.238 12.137,3.238 12.118,3.237 L12.141,3.221 L12.088,3.239 C12.076,3.267 12.076,3.267 11.888,3.362 L11.899,3.362 L11.899,3.362 L11.899,3.362 C11.894581,3.36415001 11.889419,3.36415001 11.885,3.362 C11.834,3.387 11.785,3.413 11.734,3.442 L11.734,3.442 L11.723,3.45 C11.404,3.614 11.404,3.614 11.323,3.616 L11.323,3.589 L11.341,3.567 C11.379,3.544 11.421,3.527 11.461,3.508 C11.4404524,3.51574646 11.4194043,3.52209428 11.398,3.527 L11.423,3.513 L11.394,3.521 L11.411,3.513 L11.393,3.519 C11.407147,3.50409377 11.4241519,3.49219031 11.443,3.484 C11.415,3.458 11.374,3.462 11.343,3.442 C11.697,3.311 11.938,3.002 12.278,2.852 L12.25,2.86 L12.311,2.836 L12.269,2.849 L12.326,2.824 L12.317,2.824 L12.35,2.811 L12.355,2.801 C12.3668553,2.79090936 12.3795704,2.78187494 12.393,2.774 C12.4140437,2.76582573 12.4341571,2.75543381 12.453,2.743 L12.453,2.743 L12.453,2.743 C12.4978684,2.71733339 12.5464456,2.69877962 12.597,2.688 L12.597,2.688 L12.61,2.679 L12.639,2.67 L12.639,2.67 L12.65,2.663 L12.634,2.663 C12.8143659,2.57037474 13.0097201,2.51044806 13.211,2.486 C13.3568743,2.3994533 13.5122313,2.32999564 13.674,2.279 L13.674,2.308 C13.6942163,2.30516988 13.7142503,2.30116308 13.734,2.296 C13.75,2.268 13.758,2.255 13.841,2.225 C13.841,2.22 13.841,2.22 13.932,2.19 C13.832,2.222 13.832,2.222 13.788,2.212 C13.92,2.112 14.088,2.127 14.232,2.069 C14.2132581,2.07414074 14.1942237,2.07814799 14.175,2.081 L14.208,2.073 L14.263,2.056 L14.271,2.056 L14.305,2.044 L14.327,2.036 L14.295,2.036 C14.3328212,2.02915982 14.3702166,2.02014487 14.407,2.009 L14.374,2.009 C14.44,1.999 14.502,1.974 14.567,1.962 C14.6480456,1.9345861 14.7269315,1.90115987 14.803,1.862 C14.708,1.878 14.708,1.878 14.682,1.862 C14.7762433,1.80781417 14.8823493,1.77759629 14.991,1.774 L15.022,1.762 C15.273,1.724 15.273,1.724 15.722,1.662 L15.73,1.662 C15.6462057,1.67687506 15.5609215,1.68157576 15.476,1.676 C15.4333963,1.68614993 15.3897934,1.69151644 15.346,1.692 C15.3297211,1.69388497 15.3132789,1.69388497 15.297,1.692 L15.278,1.692 L15.271,1.692 C15.2054276,1.70845739 15.1384776,1.71883463 15.071,1.723 L15.071,1.723 C14.963,1.73633333 14.8553333,1.75066667 14.748,1.766 L14.748,1.766 L14.732,1.766 L14.761,1.766 C14.6777673,1.78800788 14.5920913,1.79943134 14.506,1.8 C14.579,1.784 14.579,1.784 14.599,1.772 L14.586,1.772 L14.598,1.772 L14.598,1.772 L14.615,1.772 C14.5818019,1.77572978 14.5484046,1.77739964 14.515,1.777 L14.573,1.764 L14.543,1.764 C14.6375544,1.74363567 14.7334807,1.73026614 14.83,1.724 L14.806,1.738 L14.836,1.738 L14.824,1.738 C14.9,1.724 14.978,1.714 15.056,1.704 C15.02,1.704 14.984,1.713 14.948,1.715 C14.948,1.715 15.07,1.69 15.14,1.68 L15.064,1.689 L15.049,1.679 L15.049,1.679 C15.0986948,1.66479598 15.1495664,1.65509021 15.201,1.65 C15.265,1.637 15.33,1.63 15.395,1.622 C15.478,1.656 15.553,1.599 15.633,1.602 C15.6395958,1.60062499 15.6464042,1.60062499 15.653,1.602 L15.653,1.602 C15.6504278,1.60300407 15.6475722,1.60300407 15.645,1.602 L15.637,1.602 C15.496,1.628 15.356,1.659 15.214,1.68 C15.1834984,1.6855498 15.1534244,1.69323538 15.124,1.703 L15.152,1.697 C15.2757583,1.66625063 15.4018596,1.64584698 15.529,1.636 L15.386,1.669 C15.444,1.658 15.503,1.648 15.562,1.639 L15.596,1.639 L15.596,1.639 L15.596,1.639 L15.566,1.639 C15.6884684,1.60616344 15.815438,1.5933314 15.942,1.601 L15.912,1.609 C15.9742561,1.60020058 16.0371617,1.59685453 16.1,1.599 L16.081,1.599 C16.111,1.599 16.141,1.599 16.171,1.604 L16.153,1.625 L16.153,1.625 C16.028,1.637 15.903,1.653 15.778,1.666 C15.878,1.658 15.978,1.651 16.078,1.644 C16.1136,1.63641082 16.1504,1.63641082 16.186,1.644 L16.094,1.663 C16.14,1.656 16.187,1.648 16.234,1.643 L16.205,1.643 L16.205,1.643 L16.155,1.66 C16.2053151,1.64886124 16.2565123,1.6421688 16.308,1.64 L16.28,1.654 C16.3947905,1.63339137 16.5114425,1.6250112 16.628,1.629 C16.6540477,1.62425403 16.6805618,1.62257592 16.707,1.624 L16.728,1.633 L16.704,1.646 L16.696,1.671 C16.642,1.683 16.585,1.679 16.531,1.696 C16.5549719,1.69435861 16.5790281,1.69435861 16.603,1.696 C16.5454295,1.71474727 16.4866197,1.72944973 16.427,1.74 C16.4949426,1.72553882 16.5637549,1.71551762 16.633,1.71 C16.6763419,1.70417454 16.7203789,1.70620701 16.763,1.716 L16.72,1.73 L16.72,1.73 C16.6572841,1.7419322 16.5937831,1.74928495 16.53,1.752 L16.558,1.76 C16.412,1.785 16.273,1.834 16.13,1.871 L16.071,1.891 C16.0904617,1.88698485 16.1105383,1.88698485 16.13,1.891 C16.1124387,1.89914304 16.0939777,1.90518483 16.075,1.909 L16.075,1.909 L16.093,1.929 C16.0295289,1.95416061 15.9608708,1.96342946 15.893,1.956 L15.885,1.982 L15.912,1.982 C15.842,2.031 15.752,2.041 15.688,2.101 L15.716,2.108 C15.653,2.124 15.653,2.124 15.616,2.118 C15.58,2.151 15.532,2.136 15.491,2.151 L15.51,2.151 L15.542,2.151 C15.426,2.203 15.426,2.203 15.349,2.157 L15.319,2.166 L15.349,2.166 C15.316,2.192 15.308,2.199 15.215,2.201 C15.1844474,2.21751747 15.155344,2.2365852 15.128,2.258 L15.119,2.285 Z M14.626,4.974 C14.589,4.982 14.589,4.982 14.592,5.098 C14.5743185,5.06941091 14.5425854,5.05258856 14.509,5.054 C14.564,5.087 14.721,5.345 14.621,5.462 C14.5835966,5.49611853 14.536325,5.5174783 14.486,5.523 L14.486,5.531 L14.477,5.531 C14.556,5.519 14.554,5.558 14.545,5.6 C14.4012155,5.6474345 14.2532,5.68092218 14.103,5.7 L14.091,5.7 C14.0842226,5.70192675 14.0769323,5.70049069 14.0713919,5.69613753 C14.0658516,5.69178437 14.0627314,5.68504086 14.063,5.678 C13.856826,5.64666006 13.6462327,5.66238618 13.447,5.724 C13.425,5.733 13.402,5.744 13.376,5.757 C13.402,5.744 13.425,5.733 13.447,5.724 C13.621,5.635 13.808,5.573 13.978,5.476 C13.8629831,5.49953791 13.7434475,5.48551613 13.637,5.436 C13.866,5.296 13.866,5.296 13.896,5.246 L13.883,5.225 C13.8609896,5.21977813 13.8385759,5.2164328 13.816,5.215 C13.916,5.183 13.938,5.154 13.923,5.095 C13.966,5.062 13.992,5.051 14.034,5.072 C14.054,5.082 14.117,5.114 14.225,4.955 C14.2190319,4.9558756 14.2129681,4.9558756 14.207,4.955 C14.163,4.949 14.143,4.867 14.287,4.791 C14.1953341,4.7795109 14.1024517,4.7988614 14.023,4.846 C14.023,4.825 14.023,4.79 14.139,4.639 L14.126,4.624 C14.112786,4.6523865 14.0920316,4.67659996 14.066,4.694 L14.056,4.694 C14.0606218,4.67976882 14.0666516,4.66603415 14.074,4.653 C14.057,4.669 14.041,4.684 14.023,4.698 L14.013,4.698 C14.0746206,4.61582456 14.141423,4.53766569 14.213,4.464 C14.113,4.523 14.108,4.528 14.044,4.532 C14.056,4.525 14.118,4.487 14.11,4.455 L14.101,4.45 L14.101,4.45 C14.152,4.417 14.201,4.386 14.255,4.35 C14.23,4.35 14.206,4.35 14.182,4.35 L14.182,4.341 C14.193243,4.31497376 14.2076878,4.29045121 14.225,4.268 C14.225,4.294 14.225,4.294 14.225,4.31 L14.257,4.287 C14.2478476,4.29556835 14.2394808,4.30493911 14.232,4.315 C14.278,4.291 14.432,4.167 14.432,4.166 L14.432,4.156 C14.446,4.147 14.472,4.129 14.612,4.124 C14.663,4.124 14.681,4.124 14.697,4.137 L14.697,4.145 L14.697,4.145 C14.616,4.195 14.54,4.252 14.462,4.307 C14.5504054,4.26728966 14.6507518,4.26334748 14.742,4.296 C14.721,4.396 14.414,4.571 14.375,4.588 C14.526,4.666 14.463,4.899 14.63,4.974 L14.626,4.974 Z M12.918,5.424 C12.929,5.413 12.932,5.41 12.98,5.383 C12.953,5.391 12.951,5.39 12.934,5.383 C12.934,5.363 12.966,5.326 13.034,5.301 C13.021016,5.2994254 13.0086364,5.29461112 12.998,5.287 C13.009,5.269 13.009,5.269 13.137,5.215 C13.1264378,5.21938892 13.1145622,5.21938892 13.104,5.215 C13.121,5.173 13.246,5.115 13.304,5.097 C13.246,5.086 13.236,5.081 13.223,5.06 C13.21,5.039 13.215,5.045 13.183,5.047 C13.1915339,5.0429098 13.1995839,5.03787857 13.207,5.032 C13.177,5.018 13.154,5.043 13.127,5.047 C13.1880896,5.01303549 13.2524062,4.98523194 13.319,4.964 C13.273,4.964 13.262,4.942 13.256,4.928 C13.308,4.918 13.313,4.915 13.321,4.91 C13.3129501,4.90563443 13.3041117,4.90291492 13.295,4.902 C13.361,4.825 13.439,4.902 13.51,4.885 C13.488,4.863 13.51,4.85 13.592,4.83 C13.539,4.83 13.534,4.824 13.529,4.816 C13.586576,4.74590838 13.6697055,4.70164466 13.76,4.693 C13.903,4.717 13.93,4.801 13.932,4.811 C13.9305821,4.81434974 13.9285467,4.81740284 13.926,4.82 C13.8128151,4.94471596 13.7123201,5.08038422 13.626,5.225 L13.626,5.225 C13.5708078,5.28773393 13.4979639,5.33234644 13.417,5.353 C13.3864334,5.36154294 13.3553762,5.3682219 13.324,5.373 C13.241,5.388 13.155,5.385 13.072,5.398 C13.041,5.403 13.014,5.421 12.984,5.429 C12.984,5.429 12.984,5.414 13.027,5.4 C12.931,5.436 12.927,5.429 12.921,5.424 L12.918,5.424 Z M13.787,3.149 C13.787,3.143 13.787,3.14 13.855,3.115 C13.838,3.115 13.745,3.115 13.746,3.078 C13.8149043,3.05540667 13.8865606,3.04228651 13.959,3.039 C13.940858,3.0352542 13.922142,3.0352542 13.904,3.039 L14.013,3.001 C13.994,2.979 13.939,2.978 13.844,2.984 C13.906,2.949 13.928,2.949 13.944,2.961 L13.944,2.956 L13.944,2.956 C13.95,2.933 14.099,2.89 14.101,2.89 L14.088,2.896 C14.125,2.896 14.16,2.896 14.072,2.985 L14.034,3.022 C14.165,2.946 14.344,2.902 14.326,2.964 C14.3230156,2.97215519 14.3189817,2.9798869 14.314,2.987 C14.3546523,2.95605021 14.4018633,2.93483948 14.452,2.925 C14.5221279,2.9184152 14.5925899,2.9160776 14.663,2.918 C14.628,2.941 14.595,2.967 14.563,2.993 L14.563,2.993 L14.563,2.993 C14.597,2.999 14.629,3.02 14.598,3.043 C14.5898942,3.04745763 14.5815481,3.05146375 14.573,3.055 L14.587,3.061 L14.58,3.067 C14.58,3.067 14.537,3.101 14.516,3.094 C14.508,3.114 14.416,3.136 14.177,3.176 C13.807,3.238 13.798,3.234 13.766,3.219 L13.766,3.214 C13.7263616,3.21188365 13.6866384,3.21188365 13.647,3.214 C13.6969548,3.1879869 13.7491693,3.16656555 13.803,3.15 L13.787,3.149 Z M7.862,5.637 C7.695,5.749 7.695,5.749 7.686,5.773 C7.72263553,5.75259086 7.75772916,5.72952933 7.791,5.704 C7.565,5.909 7.508,5.914 7.491,5.911 C7.50826564,5.8880435 7.52921609,5.86810678 7.553,5.852 C7.52202188,5.87568635 7.48847765,5.89581288 7.453,5.912 C7.49347371,5.86941769 7.53801955,5.8309006 7.586,5.797 C7.662,5.735 7.686,5.714 7.693,5.697 C7.682,5.697 7.682,5.697 7.586,5.763 L7.592,5.763 C7.405,5.874 7.405,5.874 7.392,5.876 C7.392,5.84 7.538,5.763 7.624,5.719 C7.61755848,5.72275843 7.61040827,5.72514183 7.603,5.726 C7.61021479,5.71815038 7.61826213,5.71110895 7.627,5.705 C7.592,5.721 7.552,5.723 7.516,5.739 C7.581,5.685 7.604,5.664 7.616,5.639 L7.616,5.631 C7.547,5.621 7.497,5.697 7.425,5.671 C7.425,5.636 7.589,5.515 7.677,5.477 C7.66527776,5.48026986 7.65316966,5.48195154 7.641,5.482 C7.641,5.476 7.641,5.465 7.735,5.411 L7.723,5.421 C7.744,5.411 7.847,5.342 7.907,5.296 C8.11128788,5.13734356 8.33146319,5.00027856 8.564,4.887 L8.578,4.887 L8.578,4.893 C8.578,4.904 8.578,4.904 8.463,4.974 C8.31579413,5.05907905 8.1744754,5.15395971 8.04,5.258 C8.184,5.17 8.19,5.169 8.201,5.168 C8.184,5.185 8.155,5.191 8.151,5.22 C8.16641454,5.21430812 8.18144577,5.20762757 8.196,5.2 C8.14309122,5.22874922 8.09288727,5.26221852 8.046,5.3 L8.052,5.307 C8.05827742,5.30580985 8.06472258,5.30580985 8.071,5.307 C8.071,5.317 8.071,5.323 8.012,5.364 C8.112,5.296 8.112,5.296 8.136,5.295 C8.13163898,5.29970268 8.12884391,5.30564221 8.128,5.312 L8.113,5.319 L8.085,5.346 C8.115,5.333 8.119,5.336 8.126,5.346 C8.126,5.381 8.126,5.381 8.059,5.42 C7.948,5.486 7.948,5.486 7.944,5.537 C7.957,5.53 7.959,5.531 7.966,5.537 C7.96357627,5.54196263 7.96017489,5.54638442 7.956,5.55 C7.85932636,5.60949532 7.76738689,5.6763604 7.681,5.75 C7.779,5.662 7.822,5.636 7.865,5.636 L7.862,5.637 Z M7.748,5.194 C7.825,5.094 7.825,5.094 7.841,5.094 L7.841,5.094 C7.859,5.109 7.824,5.194 7.725,5.281 C7.679,5.321 7.672,5.32 7.668,5.319 C7.664,5.318 7.665,5.303 7.751,5.191 L7.748,5.194 Z M11.06,2.792 L11.075,2.785 L11.063,2.791 C11.192,2.734 11.216,2.724 11.286,2.697 L11.804,2.468 L12.443,2.233 L12.398,2.248 L12.527,2.202 L12.609,2.172 L12.633,2.164 L12.666,2.153 C12.619,2.168 12.574,2.186 12.527,2.202 L12.443,2.233 C12.475,2.222 12.506,2.21 12.543,2.201 L12.48,2.226 C12.38,2.264 12.28,2.295 12.18,2.332 C12.348,2.274 12.411,2.255 12.58,2.203 L12.563,2.203 C13.0217352,2.04808456 13.4918176,1.92905943 13.969,1.847 L13.969,1.854 C13.755,1.925 13.524,1.92 13.31,1.996 L13.327,1.996 C13.322,1.996 12.827,2.13 12.778,2.159 L12.793,2.159 C12.793,2.159 12.626,2.209 12.428,2.275 C12.5017996,2.24648797 12.5781432,2.22505818 12.656,2.211 L12.616,2.227 L12.132,2.391 C12.232,2.364 12.319,2.327 12.415,2.303 L12.326,2.332 C12.485431,2.27273473 12.6506837,2.23049977 12.819,2.206 C12.819,2.206 12.692,2.256 12.662,2.265 L12.662,2.265 L11.928,2.49 L11.986,2.467 C11.909,2.496 11.832,2.527 11.753,2.552 C11.8193683,2.5289263 11.8833359,2.49945431 11.944,2.464 C11.72,2.516 11.518,2.63 11.301,2.702 L11.334,2.686 L11.294,2.701 L10.922,2.866 L10.954,2.85 L11.071,2.795 L11.06,2.792 Z M12.744,2.128 L12.876,2.086 L12.843,2.096 L12.833,2.096 C13.11,2.013 13.456,1.922 13.773,1.84 C13.713,1.851 13.53,1.898 13.402,1.93 C13.518,1.894 13.638,1.869 13.756,1.84 C13.7134923,1.84731053 13.6714266,1.85699231 13.63,1.869 L13.63,1.869 L13.646,1.869 C13.799,1.834 13.946,1.797 14.103,1.76 L14.12,1.76 L13.772,1.849 L13.789,1.849 C13.235,1.996 13.235,1.996 12.9,2.093 L12.743,2.139 L12.751,2.139 L12.744,2.128 Z M14.271,1.728 C14.2830525,1.72169763 14.2964019,1.71827471 14.31,1.718 L14.264,1.726 C14.272,1.726 14.443,1.687 14.533,1.676 L14.533,1.676 C14.5660223,1.66887744 14.5994039,1.66353639 14.633,1.66 C14.5671694,1.676971 14.5003838,1.6899942 14.433,1.699 C14.3969483,1.70286932 14.3614133,1.71057975 14.327,1.722 C14.3445798,1.72130511 14.3620243,1.71862134 14.379,1.714 C14.4621976,1.69579053 14.546321,1.68210379 14.631,1.673 C14.5601254,1.69160475 14.4879057,1.70464442 14.415,1.712 L14.423,1.712 L14.416,1.712 L14.392,1.712 L14.381,1.712 C14.263,1.729 14.147,1.759 14.027,1.769 C14.1084754,1.74430892 14.1922321,1.72789262 14.277,1.72 L14.271,1.728 Z M14.527,1.67 C14.6364031,1.64858933 14.7469045,1.63323265 14.858,1.624 C14.858,1.63 14.848,1.624 14.843,1.624 L14.773,1.636 L14.773,1.636 L14.781,1.636 C14.708,1.636 14.639,1.663 14.566,1.668 C14.601,1.66 14.636,1.656 14.671,1.65 C14.612,1.658 14.553,1.668 14.494,1.677 L14.494,1.677 L14.551,1.666 C14.531,1.666 14.512,1.674 14.492,1.676 C14.5082635,1.67463305 14.524346,1.67161757 14.54,1.667 L14.527,1.67 Z M14.295,1.812 L14.295,1.812 C14.313,1.812 14.331,1.797 14.351,1.812 C14.351,1.812 14.37,1.837 14.322,1.845 C14.274,1.853 14.239,1.866 14.196,1.872 C14.153,1.878 14.145,1.872 14.142,1.872 L14.142,1.863 C14.13,1.848 14.108,1.863 14.095,1.846 C14.095,1.846 14.095,1.841 14.118,1.837 C14.091196,1.84361034 14.0635762,1.84630496 14.036,1.845 C14.0530693,1.83940262 14.0704278,1.83472917 14.088,1.831 C14.0840282,1.83167136 14.0799718,1.83167136 14.076,1.831 C14.089,1.825 14.089,1.825 14.47,1.75 L14.47,1.75 C14.5103353,1.73001456 14.5550137,1.72039151 14.6,1.722 C14.6,1.722 14.595,1.729 14.573,1.733 C14.5808454,1.73077603 14.5891546,1.73077603 14.597,1.733 C14.575327,1.7426703 14.5524574,1.74939666 14.529,1.753 C14.565,1.746 14.601,1.738 14.637,1.733 L14.637,1.733 C14.5750515,1.74934753 14.5118229,1.76038746 14.448,1.766 L14.448,1.766 C14.3976119,1.77928041 14.3478883,1.79496502 14.299,1.813 L14.295,1.812 Z M14.326,1.741 C14.356,1.732 14.387,1.728 14.417,1.722 C14.454656,1.71445104 14.4927208,1.7091086 14.531,1.706 L14.531,1.706 C14.5200759,1.70782752 14.5089241,1.70782752 14.498,1.706 C14.461,1.713 14.424,1.722 14.388,1.728 L14.382,1.728 L14.36,1.734 L14.401,1.726 C14.4215495,1.72319026 14.4419175,1.71918344 14.462,1.714 C14.498,1.708 14.533,1.702 14.57,1.697 C14.5573838,1.70127994 14.5442824,1.70396741 14.531,1.705 L14.576,1.705 L14.565,1.705 C14.5733067,1.70594143 14.5816933,1.70594143 14.59,1.705 C14.59,1.705 14.597,1.705 14.6,1.705 C14.5901968,1.70788203 14.5801576,1.70988988 14.57,1.711 L14.57,1.711 C14.539,1.719 14.508,1.727 14.476,1.732 L14.476,1.732 C14.3944363,1.7538426 14.3104346,1.76526684 14.226,1.766 L14.236,1.766 C14.2687197,1.75538016 14.3021321,1.74702705 14.336,1.741 L14.326,1.741 Z M14.23,1.779 C14.2565923,1.77107899 14.2842602,1.76736744 14.312,1.768 C14.2734743,1.78252974 14.2336171,1.79324767 14.193,1.8 L14.078,1.823 C14.0673925,1.82458901 14.0566075,1.82458901 14.046,1.823 C14.079,1.806 14.119,1.81 14.151,1.79 C14.151,1.784 14.167,1.79 14.173,1.79 L14.246,1.778 L14.289,1.77 C14.2714723,1.77222832 14.254104,1.77556838 14.237,1.78 L14.23,1.779 Z M14.545,1.671 L14.545,1.671 L14.529,1.671 C14.496,1.677 14.464,1.684 14.429,1.688 L14.429,1.688 L14.416,1.688 C14.416,1.688 14.537,1.672 14.549,1.672 L14.545,1.671 Z M13.681,1.889 C13.643,1.9 13.604,1.908 13.566,1.918 C13.609,1.91 13.652,1.895 13.696,1.889 L13.456,1.946 L13.464,1.946 C13.422,1.957 13.316,1.982 13.307,1.981 C13.4269986,1.93962395 13.5495987,1.90621792 13.674,1.881 C13.65,1.89 13.624,1.893 13.6,1.905 C13.6,1.905 13.682,1.888 13.7,1.881 L13.725,1.875 L13.717,1.875 C13.717,1.875 13.852,1.845 13.868,1.845 L13.855,1.853 C13.8853102,1.84405444 13.9164853,1.83835577 13.948,1.836 L13.948,1.836 C13.948,1.836 13.848,1.863 13.811,1.87 C13.774,1.877 13.721,1.887 13.677,1.895 L13.681,1.889 Z M12.844,2.104 C12.8243337,2.11413264 12.8035166,2.12185512 12.782,2.127 C12.8025962,2.11912244 12.8236314,2.11244458 12.845,2.107 C12.799,2.124 12.753,2.139 12.706,2.153 L12.74,2.141 C12.683,2.159 12.627,2.18 12.569,2.198 C12.5495474,2.20544577 12.5294672,2.21113514 12.509,2.215 C12.6190921,2.17084946 12.7320101,2.13410102 12.847,2.105 L12.844,2.104 Z M11.189,2.75 C11.3977578,2.65655908 11.6114012,2.57443993 11.829,2.504 C11.829,2.504 11.402,2.697 11.298,2.738 L11.313,2.738 C11.313,2.746 11.313,2.747 11.28,2.759 L11.28,2.759 C11.2547167,2.76797929 11.2285804,2.77434583 11.202,2.778 C11.208,2.77 11.212,2.766 11.328,2.715 C11.2370872,2.75475759 11.1435301,2.78817087 11.048,2.815 C11.068,2.801 11.22,2.737 11.221,2.736 C11.2130697,2.74164299 11.204711,2.74665822 11.196,2.751 L11.189,2.75 Z M11.06,2.975 L11.092,2.962 L11.128,2.942 L11.112,2.954 C11.257,2.875 11.406,2.794 11.491,2.754 L11.458,2.765 L11.496,2.748 L11.481,2.748 L11.457,2.757 L11.48,2.747 L11.48,2.747 L11.556,2.707 C11.466,2.742 11.466,2.742 11.456,2.737 L11.471,2.729 C11.401,2.756 11.401,2.756 11.385,2.747 C11.6191173,2.64365074 11.8649153,2.56910542 12.117,2.525 C12.117,2.525 12.533,2.374 12.617,2.335 L12.644,2.313 L12.672,2.299 C12.6403088,2.30060478 12.6090014,2.30666427 12.579,2.317 C12.6249222,2.29908731 12.6724801,2.28569072 12.721,2.277 L12.721,2.277 C12.829569,2.24538059 12.9350104,2.20387352 13.036,2.153 C12.9639705,2.18259142 12.8876754,2.20048363 12.81,2.206 C12.81,2.198 12.81,2.198 12.885,2.149 L12.857,2.157 C12.89,2.141 12.925,2.133 12.957,2.117 L12.942,2.117 C13.0073908,2.09242231 13.0741732,2.07171975 13.142,2.055 L13.133,2.068 C13.384517,1.98585425 13.6423955,1.92464573 13.904,1.885 L13.933,1.885 C13.8675477,1.90670675 13.8007363,1.9240777 13.733,1.937 C13.7622749,1.93438211 13.7917251,1.93438211 13.821,1.937 C13.705,1.97 13.588,1.997 13.473,2.031 C13.504,2.025 13.534,2.017 13.564,2.012 L13.525,2.022 L13.577,2.01 L13.456,2.045 L13.472,2.045 L13.43,2.058 C13.585,2.015 13.585,2.015 13.607,2.022 C13.5378173,2.05555218 13.4666904,2.08493795 13.394,2.11 L13.415,2.11 L13.392,2.116 L13.392,2.116 L13.386,2.116 L13.403,2.116 C13.386,2.13 13.385,2.131 13.325,2.147 L13.331,2.147 C13.3025546,2.16031172 13.2726995,2.17037523 13.242,2.177 L13.258,2.177 L13.226,2.184 L13.237,2.195 C13.237,2.195 13.104,2.237 13.063,2.248 C13.087811,2.23970568 13.1138417,2.23564895 13.14,2.236 L13.051,2.27 L12.951,2.294 L12.986,2.294 C12.902,2.329 12.895,2.327 12.876,2.318 L12.851,2.329 L12.851,2.329 C12.7718781,2.36672587 12.6907576,2.40010877 12.608,2.429 L12.613,2.429 C12.6022253,2.4342054 12.591862,2.44022276 12.582,2.447 C12.5928741,2.44464645 12.6041259,2.44464645 12.615,2.447 C12.554,2.469 12.501,2.509 12.438,2.527 C12.4491839,2.52439724 12.4608161,2.52439724 12.472,2.527 L12.414,2.547 C12.3973044,2.55325915 12.380279,2.55860046 12.363,2.563 L12.398,2.556 L12.365,2.57 L12.381,2.57 L12.366,2.578 C12.3807575,2.57270153 12.3963201,2.56999499 12.412,2.57 C12.3826007,2.58774686 12.3518371,2.60312864 12.32,2.616 L12.32,2.616 L12.307,2.616 L12.307,2.609 C12.2944888,2.6151884 12.2814335,2.62020967 12.268,2.624 L12.24,2.636 L12.226,2.629 C12.0800949,2.68915945 11.9312378,2.74189361 11.78,2.787 C11.8618668,2.72328672 11.9547415,2.67515461 12.054,2.645 L12.037,2.639 C12.125,2.605 12.137,2.591 12.142,2.581 C12.0637124,2.61310967 11.9835683,2.64049222 11.902,2.663 L11.937,2.656 C11.87,2.686 11.804,2.717 11.737,2.748 L11.755,2.748 L11.715,2.766 L11.726,2.766 C11.685266,2.79863464 11.6388059,2.82339075 11.589,2.839 L11.603,2.832 C11.5439116,2.85663395 11.4864608,2.88502534 11.431,2.917 L11.446,2.911 C11.412,2.93 11.375,2.944 11.34,2.962 C11.372,2.949 11.401,2.932 11.431,2.916 C11.3238207,2.95260981 11.2189613,2.99568896 11.117,3.045 C11.1902605,2.98905631 11.2670901,2.93794795 11.347,2.892 C11.3274664,2.90141134 11.307437,2.90975692 11.287,2.917 C11.31,2.902 11.332,2.888 11.354,2.871 C11.2058208,2.96378473 11.0522119,3.04760177 10.894,3.122 C10.894,3.103 10.887,3.074 11.062,2.965 L11.06,2.975 Z M17.41,1.816 C17.4245083,1.81904814 17.4394917,1.81904814 17.454,1.816 C17.4160953,1.81865156 17.3780071,1.81561799 17.341,1.807 L17.356,1.807 L17.349,1.807 L17.349,1.807 C17.3460268,1.80643247 17.3429732,1.80643247 17.34,1.807 L17.353,1.807 L17.353,1.807 C17.3572247,1.80306232 17.3637753,1.80306232 17.368,1.807 L17.368,1.807 C17.375,1.807 17.38,1.814 17.388,1.814 C17.396,1.814 17.388,1.806 17.381,1.801 C17.3876368,1.80189288 17.3943632,1.80189288 17.401,1.801 L17.401,1.801 L17.393,1.795 C17.4052432,1.79289143 17.4177568,1.79289143 17.43,1.795 C17.469,1.795 17.585,1.806 17.605,1.834 L17.596,1.834 C17.596,1.834 17.384,1.876 17.396,1.834 C17.396,1.829 17.416,1.834 17.425,1.834 L17.41,1.816 Z M19.449,1.828 C19.3419812,1.82276943 19.2357699,1.80668696 19.132,1.78 C19.1260288,1.78302891 19.1189712,1.78302891 19.113,1.78 L19.129,1.78 C19.0905874,1.77661313 19.0526804,1.76889754 19.016,1.757 C19.0299849,1.75608026 19.0440151,1.75608026 19.058,1.757 C19.0024067,1.74920956 18.947553,1.73683404 18.894,1.72 C18.894,1.709 18.894,1.709 18.903,1.707 C18.9366445,1.70845682 18.9701013,1.7128062 19.003,1.72 C19.003,1.72 19.003,1.727 19.048,1.733 C19.064435,1.73499786 19.0805584,1.7390287 19.096,1.745 C19.101,1.745 19.111,1.745 19.168,1.755 C19.225,1.765 19.234,1.766 19.238,1.764 L19.238,1.764 C19.273,1.764 19.302,1.783 19.338,1.789 L19.338,1.789 C19.3650119,1.79243241 19.3917458,1.7977792 19.418,1.805 C19.429962,1.80843255 19.4414006,1.81347897 19.452,1.82 L19.449,1.828 Z M17.223,1.828 C17.232,1.797 17.252,1.813 17.286,1.853 C17.2746569,1.82758637 17.2857819,1.79777139 17.311,1.786 C17.328,1.786 17.332,1.819 17.331,1.823 L17.425,1.852 L17.413,1.858 L17.422,1.858 C17.457,1.852 17.444,1.871 17.438,1.879 C17.4506791,1.88107648 17.4621074,1.887862 17.47,1.898 C17.4683966,1.90155195 17.4655519,1.90439659 17.462,1.906 C17.4944237,1.90416455 17.5266048,1.91255963 17.554,1.93 C17.554,1.93 17.562,1.94 17.566,1.941 L17.572,1.941 L17.572,1.941 C17.572,1.941 17.491,1.966 17.479,1.955 L17.479,1.95 L17.414,1.955 C17.43,1.913 17.43,1.913 17.428,1.908 C17.426,1.903 17.4,1.895 17.386,1.889 L17.405,1.881 C17.37,1.881 17.362,1.888 17.346,1.915 C17.317,1.964 17.204,2.015 17.162,1.957 C17.162,1.943 17.168,1.937 17.175,1.933 C17.1668862,1.9303118 17.1615663,1.92253649 17.162,1.914 C17.2014647,1.90350665 17.2402117,1.89047963 17.278,1.875 C17.2648,1.87294437 17.251766,1.86993652 17.239,1.866 C17.23,1.873 17.216,1.866 17.207,1.878 C17.2083905,1.88166309 17.2104222,1.88504929 17.213,1.888 C17.1870724,1.88939712 17.1610866,1.8866973 17.136,1.88 L17.136,1.88 C17.117,1.869 17.113,1.866 17.11,1.859 C17.107,1.852 17.11,1.852 17.138,1.853 L17.13,1.848 L17.142,1.842 L17.142,1.842 C17.134,1.842 17.123,1.842 17.116,1.831 C17.1216716,1.82452968 17.1284425,1.819113 17.136,1.815 L17.128,1.815 C17.136,1.815 17.21,1.804 17.22,1.815 L17.188,1.821 C17.194005,1.81184109 17.2054487,1.80790914 17.2158149,1.81144306 C17.226181,1.81497698 17.23284,1.82508027 17.232,1.836 L17.223,1.828 Z M8.228,4.528 L8.079,4.644 L8.131,4.602 L8.114,4.615 L8.196,4.55 L8.131,4.602 L8.231,4.528 C8.276,4.493 8.321,4.457 8.367,4.422 L8.38,4.413 L8.38,4.413 L8.542,4.29 L8.495,4.324 C8.654,4.203 8.995,3.962 9.146,3.865 C8.998,3.972 8.852,4.079 8.707,4.186 C9.41596157,3.71106856 10.161657,3.29341222 10.937,2.937 C10.912,2.954 10.893,2.977 10.868,2.994 L10.89,3.008 C10.845,3.071 10.014,3.516 10.006,3.521 C10.0247648,3.51378658 10.0441908,3.50842769 10.064,3.505 C10.033441,3.53206516 9.99989015,3.55555075 9.964,3.575 L9.99,3.566 C9.95804706,3.58941701 9.92464726,3.61079287 9.89,3.63 C9.94242025,3.5983605 10.0011244,3.57856493 10.062,3.572 L9.997,3.609 C10.467,3.376 10.467,3.376 10.535,3.365 C10.535,3.365 9.974,3.707 9.869,3.804 L9.844,3.804 C9.78961384,3.85822981 9.7259382,3.90226084 9.656,3.934 L9.713,3.896 C9.67244491,3.91913647 9.63072275,3.94016444 9.588,3.959 L9.595,3.959 L9.557,3.999 L9.566,3.999 L9.554,4.005 C9.53022532,4.01470481 9.50900892,4.02976161 9.492,4.049 L9.492,4.068 L9.46,4.091 L9.48,4.085 C9.43107545,4.1117439 9.386278,4.14542619 9.347,4.185 L9.374,4.173 L9.326,4.204 L9.373,4.198 C9.353,4.223 9.323,4.238 9.303,4.262 L9.329,4.274 C9.30943343,4.28624197 9.29434981,4.30448263 9.286,4.326 C9.18326188,4.38139646 9.08728856,4.44851067 9,4.526 C9.03,4.514 9.057,4.498 9.086,4.484 C9.07470598,4.50168823 9.06595373,4.52087585 9.06,4.541 C8.716,4.691 8.426,4.941 8.076,5.079 C7.99530415,5.09467265 7.91177611,5.07461133 7.847,5.024 C7.55985252,5.19087788 7.29162203,5.38836258 7.047,5.613 C7.23424548,5.45654757 7.44305776,5.32789226 7.667,5.231 C7.61,5.32 7.601,5.324 7.361,5.431 C7.24,5.638 7.022,5.768 6.913,5.984 C7.013,5.917 7.123,5.853 7.228,5.784 L7.228,5.784 C7.16554284,5.85883835 7.09876216,5.92995978 7.028,5.997 C6.819,6.146 6.58,6.245 6.37,6.397 C6.46680277,6.26443482 6.59224581,6.1553985 6.737,6.078 L6.719,6.102 C6.73809035,6.08435592 6.75885521,6.06861481 6.781,6.055 L6.754,6.044 L6.864,5.944 C6.773,6.017 6.671,6.076 6.582,6.152 L6.599,6.134 C6.56074191,6.16600561 6.51917247,6.19383032 6.475,6.217 L6.528,6.16 C6.509,6.179 6.49,6.199 6.471,6.218 L6.489,6.198 C6.458,6.229 6.427,6.259 6.389,6.287 L6.407,6.267 C6.353,6.322 6.242,6.435 6.143,6.546 L6.03,6.679 C6.019,6.693 6.005,6.708 5.996,6.72 L5.996,6.72 C5.986,6.733 5.972,6.747 5.959,6.761 C5.933,6.793 5.907,6.82 5.881,6.853 L5.895,6.834 L5.922,6.8 L5.911,6.813 L5.952,6.764 L5.923,6.8 L5.95,6.769 L5.933,6.79 L5.96,6.761 C5.984,6.731 6.008,6.705 6.032,6.676 L6.145,6.543 C6.90323794,5.65459438 7.76770802,4.86266724 8.719,4.185 C8.552,4.298 8.392,4.412 8.237,4.531 L8.228,4.528 Z M3.103,18.675 L3.11,18.596 C3.176,18.865 3.225,19.138 3.31,19.403 L3.31,19.321 C3.34610565,19.4525017 3.37415772,19.586083 3.394,19.721 C3.3984545,19.7639271 3.40648234,19.8064077 3.418,19.848 L3.41,19.783 C3.42,19.82 3.432,19.87 3.44,19.907 L3.44,19.859 C3.455,19.899 3.474,19.953 3.487,19.994 L3.495,19.994 L3.527,20.023 C3.6237998,20.2619019 3.69096678,20.511763 3.727,20.767 C3.7009208,20.5873256 3.68423146,20.4064131 3.677,20.225 C3.7786034,20.3448951 3.8864178,20.4593853 4,20.568 C4.03752194,20.7091028 4.08981075,20.8458582 4.156,20.976 L4.163,20.914 L4.189,20.977 L4.209,20.9 L4.279,20.879 C4.85187674,21.3446386 5.34063116,21.9050995 5.724,22.536 L5.724,22.536 L5.73,22.547 L5.73,22.54 C5.86845045,23.2038283 6.04575551,23.8589554 6.261,24.502 C6.72829297,25.1440702 7.15929973,25.8117802 7.552,26.502 C7.51013473,26.4940343 7.46923726,26.481631 7.43,26.465 L7.425,26.474 C8.09045695,27.3294732 8.90608624,28.0566608 9.832,28.62 L10.232,28.846 L10.387,28.93 L10.593,29.039 L10.502,28.992 L10.502,28.992 L10.387,28.93 L10.287,28.878 L10.231,28.846 C10.12,28.785 9.991,28.713 9.851,28.63 L9.851,28.63 L9.816,28.609 L9.734,28.561 L9.747,28.569 L9.721,28.553 L9.71,28.546 C5.49925697,25.9819331 2.84592444,21.4855605 2.637,16.56 C2.75178216,17.2750666 2.91041468,17.9824006 3.112,18.678 L3.103,18.675 Z M23.729,25.198 C23.718,25.224 23.705,25.25 23.693,25.275 C23.743,25.209 23.76,25.192 23.804,25.175 L23.939,24.908 C24.012,24.861 24.012,24.861 24.039,24.808 L24.044,24.841 C24.0637012,24.8281679 24.0818256,24.8130642 24.098,24.796 C24.122,24.77 24.362,24.484 24.362,24.484 C24.433,24.562 24.362,24.791 24.228,25.246 L24.228,25.246 C24.2124159,25.3101365 24.1878391,25.3717466 24.155,25.429 C24.116,25.49 24.094,25.492 24.068,25.488 C24.0664063,25.4544218 24.062396,25.421002 24.056,25.388 C23.966,25.46 23.945,25.477 23.677,25.874 C21.964,28.42 21.833,27.474 21.8339889,27.463 C21.8339889,27.275 22.016,27.032 22.452,26.445 C22.6618995,26.2195855 22.8199291,25.9509693 22.915,25.658 C22.9155234,25.6483052 22.9178996,25.6388005 22.922,25.63 C23.063816,25.5634775 23.2167304,25.523808 23.373,25.513 C23.335,25.42 23.5,25.357 23.545,25.368 C23.5453079,25.3813552 23.5418418,25.3945263 23.535,25.406 C23.626,25.356 23.644,25.244 23.737,25.201 L23.729,25.198 Z M30.86,17.633 L30.867,17.633 C30.875,17.64 30.881,17.645 30.882,17.686 C30.882,17.58 30.882,17.477 30.917,17.477 C30.907,17.444 30.903,17.431 30.905,17.424 C30.9158976,17.435548 30.9243951,17.449144 30.93,17.464 L30.922,17.471 C30.922,17.485 30.922,17.485 30.922,17.493 L30.934,17.493 C30.9721117,17.5697099 30.9974449,17.6521272 31.009,17.737 C31.009,17.747 31.009,17.761 31.009,17.77 C31.0122983,17.9639685 31.0042847,18.1579643 30.985,18.351 C30.954,18.551 30.895,18.642 30.842,18.567 C30.755731,18.3482038 30.7575229,18.104504 30.847,17.887 C30.847,17.914 30.839,17.942 30.838,17.97 C30.8714841,17.8620364 30.8817087,17.7482025 30.868,17.636 L30.86,17.633 Z M31.56,18.924 L31.614,18.632 C31.622,18.58 31.631,18.525 31.642,18.451 C31.649,18.404 31.66,18.36 31.66,18.36 C31.6623787,18.3732272 31.6623787,18.3867728 31.66,18.4 L31.618,18.632 C31.601,18.727 31.587,18.804 31.563,18.927 L31.56,18.924 Z M31.78,14.88 L31.78,14.974 L31.758,14.957 C31.7212444,14.4469205 31.622518,13.943214 31.464,13.457 C31.464,13.463 31.464,13.469 31.435,13.357 C31.3952899,13.1580965 31.3251314,12.9665098 31.227,12.789 C31.2302039,12.9532076 31.2241944,13.1174656 31.209,13.281 L31.166,13.14 C31.1882145,13.4174107 31.1798307,13.6964236 31.141,13.972 L31.152,13.982 C30.9968745,14.6759617 30.9187357,15.3849116 30.919,16.096 C31.037,17.555 30.704,17.766 30.579,17.845 C29.794,16.509 30.718,14.78 29.579,13.525 C29.55,13.614 29.505,13.732 29.469,13.818 L29.332,13.863 C29.102,13.593 29.073,13.558 29.199,13.215 C28.721,13.199 28.679,12.715 28.405,12.478 C28.0342682,12.4922846 27.6667652,12.5527513 27.311,12.658 C27.011,12.53 27.011,12.53 26.882,12.521 C26.692,12.221 26.692,12.221 26.496,12.144 C26.413,12.183 26.413,12.183 24.713,11.208 C24.6606485,11.2906308 24.6129089,11.3760947 24.57,11.464 C24.749,11.654 24.749,11.654 25.31,12.303 L25.261,12.28 C25.397,12.71 25.589,13.12 26.291,13.017 C26.4391155,12.8017207 26.526825,12.550678 26.545,12.29 C27.472,14.117 27.472,14.117 27.164,14.818 C26.675,15.93 24.508,16.964 24.49,16.967 L21.624,11.876 C21.576,11.786 21.617,11.638 21.611,11.537 C21.525,11.925 21.525,11.925 21.487,11.993 C21.426,11.933 21.426,11.933 21.033,11.493 L23.301,16.054 C23.546,16.473 24.044,16.644 24.29,17.061 C24.2598949,17.1728183 24.1980751,17.2735357 24.112,17.351 C24.807,17.575 25.484,17.167 26.176,17.297 C26.176,17.31 26.324,18.897 23.807,21.306 C23.3755227,21.6709585 23.0221354,22.1192401 22.768,22.624 C22.425,23.545 22.796,24.595 22.254,25.481 C21.874,26.101 20.804,25.806 20.632,26.704 C20.499,27.404 20.499,27.404 19.765,27.766 C19.846,28.278 18.205,29.347 17.065,29.153 C16.69,28.031 15.905,27.085 15.67,25.903 L15.817,22.864 C15.56,22.771 15.465,22.736 14.769,21.558 L14.737,21.558 L14.719,21.541 L14.73,21.508 L14.699,21.521 C14.6305903,21.4459505 14.6018633,21.3428854 14.6215891,21.2432701 C14.6413149,21.1436548 14.7071518,21.0593153 14.799,21.016 L14.737,20.889 C14.9503441,20.4473829 14.8390143,19.9174364 14.466,19.599 C13.602,19.673 13.602,19.673 13.547,19.274 L13.577,19.268 C13.045,19.332 12.504,19.083 11.977,19.315 L10.264,19.484 C10.2102894,19.4956336 10.1547106,19.4956336 10.101,19.484 C8.954,18.968 8.901,17.652 8.159,16.836 L8.022,16.836 L8.086,16.714 C8.01371397,16.6411174 7.96614243,16.5473734 7.95,16.446 L8.08,16.316 C7.766,15.476 8.37,14.742 8.357,13.937 L8.227,13.855 C8.572,12.289 11.85,9.421 11.881,9.402 L15.627,9.202 C15.5537488,9.49957346 15.4533271,9.78979191 15.327,10.069 L15.327,10.069 C15.5433092,10.3110932 15.8319278,10.47697 16.15,10.542 C16.617,10.693 16.968,11.121 17.503,11.105 C17.909,11.094 17.839,10.567 18.178,10.483 L20.793,10.904 L20.793,10.897 L20.798,10.904 L20.798,10.904 L20.821,10.935 L20.872,10.935 C21.664,11.471 21.466,9.417 21.463,9.395 C20.8109766,9.34359695 20.1564139,9.33224229 19.503,9.361 L19.603,9.247 C19.237,9.057 19.234,9.036 19.203,8.832 L19.339,8.865 C19.2823047,8.77095057 19.237623,8.6701648 19.206,8.565 L19.066,8.565 C19.074726,8.45841392 19.1090292,8.35550447 19.166,8.265 C18.727,8.157 18.691,8.18 18.543,8.275 L18.588,8.428 C18.4828321,8.40582007 18.3816666,8.36771441 18.288,8.315 C18.33,8.422 18.33,8.422 18.716,8.954 L18.602,8.876 L18.602,9.032 L18.454,9.032 L18.514,9.162 L18.384,9.113 C18.425,9.205 18.474,9.33 18.506,9.426 L17.634,8.468 C17.6192147,8.40867112 17.5892303,8.35421672 17.547,8.31 C17.584,7.977 17.616,7.69 16.899,7.563 L17.049,7.568 C16.9014238,7.50403953 16.7634404,7.41990329 16.639,7.318 L16.716,7.272 C16.6615699,7.23126007 16.6148388,7.18114265 16.578,7.124 C16.478,7.131 16.47,7.131 16.278,6.924 L16.109,7.036 C16.171,7.808 16.936,7.972 17.334,8.452 C17.2501156,8.40040505 17.1613539,8.35719653 17.069,8.323 C16.684,9 16.684,9 16.652,9.001 C16.6165777,9.10522278 16.5963698,9.21400895 16.592,9.324 C16.4293382,9.3657856 16.2566244,9.32081198 16.135,9.205 C16.035,9.092 15.787,8.732 16.745,8.846 L16.831,8.736 C16.614,8.242 15.237,6.672 14.192,7.586 L14.192,7.75 C13.8309627,7.93130209 13.532479,8.21655086 13.335,8.569 C13.235,8.709 13.235,8.709 11.892,9.315 C11.803,9.177 11.803,9.177 11.328,8.9 C11.768,7.056 12.413,7.241 12.628,7.3 C13.775,7.628 13.642,6.726 13.636,6.687 L13.661,6.687 C13.589,6.487 13.409,6.35 13.316,6.16 C13.45,6.055 13.45,6.055 13.872,6.121 L13.993,5.911 C14.862,6.252 15.08,5.119 15.786,5.071 C15.894,4.906 15.817,4.684 15.954,4.527 L15.971,4.512 L16.009,4.481 L16.066,4.458 C16.114966,4.41941803 16.1747349,4.39704836 16.237,4.394 L16.258,4.543 C16.2024777,4.604496 16.1426608,4.66197375 16.079,4.715 L16.079,4.715 L16.195,4.751 L16.095,4.851 L16.081,4.951 L16.181,5.043 C17.081,4.897 17.099,4.9 17.323,4.943 L17.323,4.943 L17.323,4.943 L17.323,4.943 L17.43,5.009 L17.567,4.951 C17.716,4.503 17.716,4.503 18.073,4.393 C18.03,4.305 17.973,4.193 17.922,4.104 C18.1478096,4.0278553 18.3837746,3.98605578 18.622,3.98 C18.508,3.929 18.508,3.929 17.763,3.959 C17.6515064,3.87074453 17.5965489,3.72903185 17.619387,3.58868132 C17.6422251,3.44833079 17.7392772,3.33135338 17.873,3.283 L17.867,3.141 C17.4827137,3.16356565 17.1864101,3.48825765 17.199,3.873 L17.317,3.947 C17.278,4.13 17.071,4.233 17.077,4.438 L17.114,4.417 C16.908614,4.5980316 16.6752582,4.74459659 16.423,4.851 C16.3690327,4.89188485 16.3036746,4.9149524 16.236,4.917 C16.2464655,4.82543779 16.2746566,4.73678877 16.319,4.656 L16.458,4.649 L16.473,4.649 C16.4577357,4.51402394 16.4326695,4.38033758 16.398,4.249 L16.386,4.249 C16.3779316,4.17062229 16.3608178,4.09344197 16.335,4.019 C15.905,4.408 15.725,4.032 15.706,3.988 L15.774,3.844 L15.779,3.787 L15.779,3.787 L15.808,3.726 L15.854,3.597 C15.942804,3.56754774 16.0274877,3.52688615 16.106,3.476 L16.106,3.468 L16.179,3.453 L16.212,3.435 L16.202,3.466 L16.325,3.403 C16.368,3.392 16.368,3.392 16.641,3.184 L16.641,3.184 L16.649,3.184 L16.674,3.184 C16.715,3.135 16.774,3.076 16.822,3.032 C16.903,2.907 16.904,2.904 17.128,2.795 L17.097,2.769 L16.96,2.78 C17.024676,2.73525844 17.0978561,2.70428452 17.175,2.689 L17.175,2.689 L17.183,2.689 C17.272,2.6 17.332,2.599 17.49,2.595 L17.49,2.595 L17.601,2.586 L17.689,2.534 L17.673,2.518 L17.697,2.529 L17.689,2.529 L17.741,2.581 L17.857,2.499 C18.2774575,2.57986843 18.6848929,2.71781107 19.068,2.909 L19.029,3.043 C19.015,3.043 19.015,3.043 18.429,2.953 C18.961,3.309 18.961,3.309 19.049,3.294 L18.901,3.222 L19.076,3.249 L19.231,3.226 L19.121,3.126 C19.1952,3.0651742 19.287142,3.03008186 19.383,3.026 C19.3039666,2.93907002 19.2345633,2.84385006 19.176,2.742 L19.33,2.797 L19.381,2.926 L19.524,2.94 L19.539,2.802 L19.677,2.753 C19.677,2.753 19.684,2.76 19.702,2.744 C19.816,2.754 19.816,2.754 20.102,2.673 L20.102,2.673 C19.9828073,2.6358342 19.8656463,2.59244124 19.751,2.543 L19.762,2.543 L19.85,2.552 C20.123,2.64 20.409,2.669 20.686,2.742 C20.4417429,2.60896417 20.2077593,2.45787758 19.986,2.29 C21.027,2.698 21.086,2.848 21.123,2.948 L21.123,2.948 L21.187,2.848 L20.895,2.66 C21.034,2.693 21.034,2.693 21.349,2.784 C20.9544043,2.66402084 20.569606,2.51391276 20.198,2.335 L20.156,2.313 C20.256,2.341 20.38,2.377 20.477,2.403 L20.339,2.326 L20.493,2.317 C20.393,2.286 20.251,2.247 20.147,2.217 L20.147,2.217 L20.147,2.136 C20.0622884,2.10365729 19.9903547,2.04470679 19.942,1.968 L20.08,1.974 C19.9820437,1.94461848 19.8858811,1.90955917 19.792,1.869 C20.003,1.916 20.221,1.92 20.433,1.969 L20.433,1.969 L20.52,1.993 L20.683,2.059 C20.76,2.092 20.867,2.127 20.948,2.152 L20.823,2.073 C20.985,2.098 21.148,2.061 21.311,2.087 C21.49,2.129 21.665,2.187 21.844,2.225 L21.719,2.155 L21.646,2.134 L21.646,2.126 L21.382,2.026 L21.647,2.103 L21.663,2.109 C22.531257,2.39413009 23.3733642,2.75345592 24.18,3.183 L24.18,3.183 C28.5505706,5.52197959 31.4165156,9.93867563 31.772,14.883 C31.7725048,14.75736 31.7654923,14.6318024 31.751,14.507 C31.797163,14.8639995 31.8248666,15.2231441 31.834,15.583 C31.8246667,15.3456667 31.8076667,15.1123333 31.783,14.883 L31.78,14.88 Z M15.141,8.116 C15.204,8.204 15.252,8.187 15.329,8.116 C15.365,8.084 15.373,8.079 15.391,8.077 C15.454,8.094 15.451,8.357 15.438,8.417 C15.399,8.595 15.206,8.561 15.108,8.657 C15.08,8.62 15.091,8.549 15.124,8.393 C15.157,8.237 15.17,8.165 15.144,8.118 L15.141,8.116 Z M15.366,7.673 C15.4016226,7.6323376 15.4443106,7.59845824 15.492,7.573 C15.4933293,7.6212104 15.4899803,7.6694361 15.482,7.717 C15.4628209,7.82412096 15.4219882,7.92620269 15.362,8.017 C15.244,7.967 15.224,7.917 15.298,7.863 C15.213,7.872 15.275,7.77 15.369,7.675 L15.366,7.673 Z" id="Path_1772"></path>
            </g>
        </g>
    </g>
</svg>