<svg xmlns="http://www.w3.org/2000/svg" width="23.186" height="25.04" viewBox="0 0 23.186 25.04"><g transform="translate(-6.669 -5)"><path d="M-84.666-216.344c-2.61,0-5.221.015-7.831-.005-2.121-.017-3.477-1.232-3.508-3.089-.032-1.937,1.311-3.174,3.524-3.208,1.575-.024,3.15,0,4.726-.013,1-.009,1.845-.318,1.808-1.506-.034-1.094-.826-1.39-1.784-1.392-1.44,0-2.884.052-4.318-.048-.411-.029-.791-.508-1.186-.781.379-.282.745-.786,1.139-.809,1.615-.095,3.239-.084,4.858-.034a3.092,3.092,0,0,1,3.074,3.111,3.094,3.094,0,0,1-3.05,3.135c-1.663.055-3.33.011-4.995.027-1.406.014-2.161.565-2.049,1.559.141,1.258,1.1,1.368,2.1,1.368q7.426,0,14.852,0c.27,0,.54-.006.81,0,.663.021,1.545-.106,1.451.873-.03.312-.89.746-1.392.775-1.659.1-3.328.036-4.993.036Z" transform="translate(102.674 246.363)" fill="#cecece"/><path d="M3.888,11.323C.609,6.568,0,6.081,0,4.333a4.333,4.333,0,0,1,8.667,0c0,1.747-.609,2.235-3.888,6.989a.542.542,0,0,1-.891,0Zm.445-5.184A1.806,1.806,0,1,0,2.528,4.333,1.806,1.806,0,0,0,4.333,6.139Z" transform="translate(7 5)" fill="#cecece"/><path d="M3.888,11.323C.609,6.568,0,6.081,0,4.333a4.333,4.333,0,0,1,8.667,0c0,1.747-.609,2.235-3.888,6.989a.542.542,0,0,1-.891,0Zm.445-5.184A1.806,1.806,0,1,0,2.528,4.333,1.806,1.806,0,0,0,4.333,6.139Z" transform="translate(21.188 13.866)" fill="#cecece"/></g></svg>