<?xml version="1.0" encoding="UTF-8"?>
<svg width="19px" height="23px" viewBox="0 0 19 23" version="1.1" xmlns="http://www.w3.org/2000/svg" xmlns:xlink="http://www.w3.org/1999/xlink">
    <!-- Generator: Sketch 56.3 (81716) - https://sketch.com -->
    <title>Shape</title>
    <desc>Created with Sketch.</desc>
    <g id="LoginPage" stroke="none" stroke-width="1" fill="none" fill-rule="evenodd">
        <g transform="translate(-836.000000, -556.000000)" id="Group-8" stroke="#EDF0F4" stroke-width="2">
            <g transform="translate(576.000000, 0.000000)">
                <g id="Group-7">
                    <path d="M277.586488,566.963083 C277.310994,566.684647 276.976635,566.545521 276.582865,566.545521 L276.11103,566.545521 L276.11103,563.681718 C276.11103,561.852209 275.461692,560.281364 274.163195,558.968819 C272.864517,557.656273 271.31027,557 269.499909,557 C267.689549,557 266.13512,557.656273 264.836624,558.968819 C263.537946,560.281364 262.888788,561.852209 262.888788,563.681718 L262.888788,566.545521 L262.416591,566.545521 C262.023184,566.545521 261.688643,566.684647 261.41315,566.963083 C261.137656,567.241335 261,567.579448 261,567.977423 L261,576.568282 C261,576.96589 261.137656,577.304003 261.41315,577.582438 C261.688643,577.860691 262.023184,578 262.416591,578 L276.583228,578 C276.976997,578 277.311356,577.860874 277.58685,577.582438 C277.862162,577.304003 278,576.96589 278,576.568282 L278,567.977239 C278.000181,567.579631 277.862162,567.241518 277.586488,566.963083 L277.586488,566.963083 Z M273,566 L266,566 L266,563.428384 C266,562.482027 266.341828,561.673918 267.025483,561.004384 C267.709138,560.334685 268.533921,560 269.500168,560 C270.466414,560 271.291197,560.334685 271.974685,561.004384 C272.658172,561.673918 273,562.482027 273,563.428384 L273,566 L273,566 Z" id="Shape"></path>
                </g>
            </g>
        </g>
    </g>
</svg>