<svg id="marketplace" xmlns="http://www.w3.org/2000/svg" width="29.295" height="23.5" viewBox="0 0 29.295 23.5">
  <path id="Path_1794" data-name="Path 1794" d="M2026.047,2785.012a2.669,2.669,0,1,0,2.669-2.668A2.672,2.672,0,0,0,2026.047,2785.012Zm1.685,0a.983.983,0,1,1,.983.983A.984.984,0,0,1,2027.732,2785.012Z" transform="translate(-2016.153 -2764.181)" fill="#fff"/>
  <path id="Path_1795" data-name="Path 1795" d="M2869.521,2785.012a2.668,2.668,0,1,0,2.668-2.668A2.672,2.672,0,0,0,2869.521,2785.012Zm1.686,0a.983.983,0,1,1,.983.983A.984.984,0,0,1,2871.207,2785.012Z" transform="translate(-2849.348 -2764.181)" fill="#fff"/>
  <path id="Path_1796" data-name="Path 1796" d="M1409.055,1296.624a.843.843,0,0,0-.654-.311h-20.814l-.762-3.672a.843.843,0,0,0-.825-.671h-3.163a.843.843,0,0,0,0,1.685h2.477l.9,4.343h21.15l-.8,3.838h-.118l-.351,1.685h.119l-.8,3.838h-17.264l.006.027c.329,1.831.633,1.658,1.752,1.658h16.192a.843.843,0,0,0,.825-.672l2.293-11.046A.843.843,0,0,0,1409.055,1296.624Z" transform="translate(-1379.949 -1291.97)" fill="#fff"/>
  <path id="Path_1798" data-name="Path 1798" d="M1334.156,2350.987h-8.967a.639.639,0,1,1,0-1.277h8.967a.639.639,0,1,1,0,1.277Z" transform="translate(-1323.172 -2336.82)" fill="#fff"/>
  <path id="Path_1799" data-name="Path 1799" d="M1224.236,1877.386h-9.415a.71.71,0,0,1,0-1.418h9.415a.71.71,0,0,1,0,1.418Z" transform="translate(-1214.148 -1868.851)" fill="#fff"/>
  <path id="Path_1797" data-name="Path 1797" d="M1459.447,2117.026h-10.312a.639.639,0,1,1,0-1.277h10.312a.639.639,0,1,1,0,1.277Z" transform="translate(-1445.608 -2105.71)" fill="#fff"/>
</svg>
