<svg xmlns="http://www.w3.org/2000/svg" width="21" height="23.417" viewBox="0 0 21 23.417"><g transform="translate(-233.539 -585.695)"><path d="M241.061,597.3a5.814,5.814,0,1,0-5.407-5.8,5.614,5.614,0,0,0,5.407,5.8Z" transform="translate(2.996 0)" fill="#fff"/><path d="M250.527,590.661a2.008,2.008,0,0,0-2.1.384,6.691,6.691,0,0,1-8.782,0,2.081,2.081,0,0,0-2.1-.384c-4.778,1.87-3.96,8.983-3.96,9.14a3.294,3.294,0,0,0,3.226,3.357H251.24a3.3,3.3,0,0,0,3.236-3.349h0C254.492,599.658,255.316,592.546,250.527,590.661Z" transform="translate(0 5.955)" fill="#fff"/></g></svg>