<svg xmlns="http://www.w3.org/2000/svg" width="13.5" height="24" viewBox="0 0 13.5 24"><path d="M2.571,22.176V8.676h24v13.5h-24Zm1.5-12.047V20.676h21V10.13h-21Zm14.25,5.3c0-2.485-1.679-4.5-3.75-4.5h9.75v9h-9.75c2.072,0,3.75-2.015,3.75-4.5Zm3,1.5c.621,0,1.125-.672,1.125-1.5s-.5-1.5-1.125-1.5-1.125.672-1.125,1.5S20.7,16.926,21.321,16.926Zm-5.161-3.392a.191.191,0,0,1-.046.089.115.115,0,0,1-.082.028.392.392,0,0,1-.164-.064c-.075-.044-.167-.091-.276-.142a2.766,2.766,0,0,0-.38-.14,1.685,1.685,0,0,0-.473-.062,1.123,1.123,0,0,0-.352.049.726.726,0,0,0-.25.135.54.54,0,0,0-.15.208.684.684,0,0,0-.049.257.567.567,0,0,0,.11.349,1.057,1.057,0,0,0,.3.262,3.043,3.043,0,0,0,.42.215c.155.068.315.139.478.213a4.808,4.808,0,0,1,.478.256,1.9,1.9,0,0,1,.418.342,1.619,1.619,0,0,1,.3.468,1.641,1.641,0,0,1,.112.635,1.875,1.875,0,0,1-.177.838,1.736,1.736,0,0,1-.484.6,2.094,2.094,0,0,1-.712.363c-.034.01-.072.015-.107.023v.819h-.737v-.722l-.027,0a3.162,3.162,0,0,1-.584-.05,3.482,3.482,0,0,1-.476-.123,2.086,2.086,0,0,1-.344-.151.968.968,0,0,1-.2-.139.352.352,0,0,1-.087-.176,1.6,1.6,0,0,1-.026-.331c0-.1,0-.178.01-.244a.727.727,0,0,1,.031-.16.171.171,0,0,1,.056-.087.138.138,0,0,1,.082-.025.39.39,0,0,1,.185.077,3.2,3.2,0,0,0,.307.171,2.805,2.805,0,0,0,.448.172,2.139,2.139,0,0,0,.6.077,1.385,1.385,0,0,0,.4-.054.9.9,0,0,0,.3-.152.657.657,0,0,0,.19-.244.773.773,0,0,0,.066-.325.574.574,0,0,0-.113-.354,1.126,1.126,0,0,0-.293-.263,3.059,3.059,0,0,0-.41-.215q-.23-.1-.473-.213a4.244,4.244,0,0,1-.473-.256,1.906,1.906,0,0,1-.41-.341,1.608,1.608,0,0,1-.293-.471,1.7,1.7,0,0,1-.113-.651,1.725,1.725,0,0,1,.161-.766,1.568,1.568,0,0,1,.436-.548,1.868,1.868,0,0,1,.646-.325,2.628,2.628,0,0,1,.394-.082v-.776h.737v.775c.029,0,.059,0,.088.007a2.922,2.922,0,0,1,.4.089,2.152,2.152,0,0,1,.333.125.769.769,0,0,1,.192.116.355.355,0,0,1,.064.079.426.426,0,0,1,.028.087.837.837,0,0,1,.016.136c0,.054,0,.122,0,.2s0,.168-.007.231a1.048,1.048,0,0,1-.025.152Zm-5.339,1.891c0,2.485,1.679,4.5,3.75,4.5H4.821v-9h9.75c-2.071,0-3.75,2.015-3.75,4.5Zm-3-1.5c-.622,0-1.125.672-1.125,1.5s.5,1.5,1.125,1.5,1.125-.672,1.125-1.5S8.442,13.926,7.821,13.926Z" transform="translate(-8.676 26.571) rotate(-90)" fill="#024f6e"/></svg>