<svg xmlns="http://www.w3.org/2000/svg" width="23.078" height="25.007" viewBox="0 0 23.078 25.007"><g transform="translate(119.016 -211.716)"><path d="M-106.223,232.205a5.773,5.773,0,0,1,5.767-5.767,5.745,5.745,0,0,1,1.3.153V211.716h-19.86v23.63h13.73A5.731,5.731,0,0,1-106.223,232.205Zm-8.863-14.749h12a.75.75,0,0,1,.75.75.75.75,0,0,1-.75.75h-12a.75.75,0,0,1-.75-.75A.75.75,0,0,1-115.086,217.456Zm0,5.66h12a.75.75,0,0,1,.75.75.75.75,0,0,1-.75.75h-12a.75.75,0,0,1-.75-.75A.75.75,0,0,1-115.086,223.116Zm6.6,7.17h-6.6a.75.75,0,0,1-.75-.75.75.75,0,0,1,.75-.75h6.6a.75.75,0,0,1,.75.75A.75.75,0,0,1-108.482,230.286Z" fill="#fff"/><path d="M-100.456,227.688a4.522,4.522,0,0,0-4.517,4.517,4.523,4.523,0,0,0,4.517,4.518,4.523,4.523,0,0,0,4.518-4.518A4.522,4.522,0,0,0-100.456,227.688Zm2.438,5.063h-1.625a.267.267,0,0,0-.267.267v1.625a.546.546,0,0,1-.545.546.547.547,0,0,1-.546-.546v-1.625a.267.267,0,0,0-.267-.267h-1.625a.547.547,0,0,1-.546-.546.547.547,0,0,1,.546-.546h1.625a.267.267,0,0,0,.267-.266v-1.626a.547.547,0,0,1,.546-.546.546.546,0,0,1,.545.546v1.626a.267.267,0,0,0,.267.266h1.625a.547.547,0,0,1,.546.546A.547.547,0,0,1-98.018,232.751Z" fill="#fff"/></g></svg>