<?xml version="1.0" encoding="UTF-8"?>
<svg width="23px" height="23px" viewBox="0 0 23 23" version="1.1" xmlns="http://www.w3.org/2000/svg" xmlns:xlink="http://www.w3.org/1999/xlink">
    <!-- Generator: Sketch 56.3 (81716) - https://sketch.com -->
    <title>Group</title>
    <desc>Created with Sketch.</desc>
    <g id="Page-1" stroke="none" stroke-width="1" fill="none" fill-rule="evenodd">
        <g id="Desktop-HD" transform="translate(-709.000000, -501.000000)">
            <g id="Group" transform="translate(709.000000, 501.000000)">
                <rect id="Rectangle" fill="#FFFFFF" x="2" y="2" width="18" height="18"></rect>
                <g id="parking-white" fill="#024F6E" fill-rule="nonzero">
                    <path d="M20.536,0 L2.464,0 C1.10339903,0.00055185607 0.00055185607,1.10339903 2.73669976e-16,2.464 L2.73669976e-16,20.536 C0.00055185607,21.896601 1.10339903,22.9994481 2.464,23 L20.536,23 C21.896601,22.9994481 22.9994481,21.896601 23,20.536 L23,2.464 C22.9994481,1.10339903 21.896601,0.00055185607 20.536,0 Z M9.857,14.786 L9.857,17.25 C9.85535464,17.7027425 9.4887425,18.0693546 9.036,18.071 L7.393,18.071 C6.9402575,18.0693546 6.57364536,17.7027425 6.572,17.25 L6.572,5.75 C6.57364536,5.2972575 6.9402575,4.93064536 7.393,4.929 L12.322,4.929 C15.0165607,4.96738324 17.1807949,7.16266591 17.1807949,9.8575 C17.1807949,12.5523341 15.0165607,14.7476168 12.322,14.786 L9.857,14.786 Z M12.321,8.215 L9.857,8.215 L9.857,11.5 L12.321,11.5 C13.2284038,11.5 13.964,10.7644038 13.964,9.857 C13.964,8.94959618 13.2284038,8.214 12.321,8.214 L12.321,8.215 Z" id="Shape"></path>
                </g>
            </g>
        </g>
    </g>
</svg>