<svg xmlns="http://www.w3.org/2000/svg" width="30" height="21.649" viewBox="0 0 30 21.649"><g transform="translate(-254.59 -30.067)"><path d="M263.745,42.832a2.441,2.441,0,1,0-2.44-2.441,2.441,2.441,0,0,0,2.44,2.441Z" fill="#cecece"/><path d="M266.564,42.532a.9.9,0,0,0-.912.162,3,3,0,0,1-3.826,0,.934.934,0,0,0-.911-.162c-2.081.786-1.727,3.772-1.727,3.838a1.407,1.407,0,0,0,1.406,1.409h6.282a1.407,1.407,0,0,0,1.409-1.4v0C268.291,46.31,268.651,43.324,266.564,42.532Z" fill="#cecece"/><path d="M270.919,45.81h9.734v1.969h-9.734V45.81Z" fill="#cecece" fill-rule="evenodd"/><path d="M270.919,41.873h9.734v1.969h-9.734V41.873Z" fill="#cecece" fill-rule="evenodd"/><path d="M270.919,37.935h9.734V39.9h-9.734V37.935Z" fill="#cecece" fill-rule="evenodd"/><path d="M282.72,30.067H256.461a1.877,1.877,0,0,0-1.871,1.871V49.845a1.877,1.877,0,0,0,1.871,1.871H282.72a1.876,1.876,0,0,0,1.87-1.871V31.938A1.876,1.876,0,0,0,282.72,30.067Zm-24.192,1.962h22.125V34H258.528Zm24.094,17.718H256.559V35.961h26.063Z" fill="#cecece" fill-rule="evenodd"/></g></svg>