<svg xmlns="http://www.w3.org/2000/svg" width="25.21" height="22.832" viewBox="0 0 25.21 22.832"><path d="M41.579,426.84a4.919,4.919,0,1,0-4.919-4.919A4.916,4.916,0,0,0,41.579,426.84Zm5.681-.6a1.817,1.817,0,0,0-1.837.326,6.043,6.043,0,0,1-7.711,0,1.883,1.883,0,0,0-1.837-.326c-4.194,1.583-3.481,7.6-3.481,7.736a2.837,2.837,0,0,0,2.84,2.84H47.888a2.837,2.837,0,0,0,2.84-2.84C50.741,433.851,51.466,427.832,47.26,426.236Zm-11.688-.81a2.767,2.767,0,0,1,.943-.169,1.17,1.17,0,0,1,.205.012,5.916,5.916,0,0,1-1.052-3.348,3.818,3.818,0,0,1,.048-.665,3.347,3.347,0,0,1-1.511.351,3.455,3.455,0,0,1-2.188-.786,1.066,1.066,0,0,0-1.052-.181c-2.381.894-1.982,4.327-1.982,4.4a1.62,1.62,0,0,0,1.62,1.62h3.022A5.889,5.889,0,0,1,35.572,425.426Zm13.368-5.064a3.191,3.191,0,1,0-3.191-3.191A3.188,3.188,0,0,0,48.94,420.362Zm3.227.278a1.076,1.076,0,0,0-1.052.181,3.388,3.388,0,0,1-2.188.786,3.512,3.512,0,0,1-1.511-.351,5.18,5.18,0,0,1,.048.665,5.826,5.826,0,0,1-1.052,3.348c.073,0,.133-.012.205-.012a2.767,2.767,0,0,1,.943.169,5.4,5.4,0,0,1,1.934,1.221h3.022a1.62,1.62,0,0,0,1.62-1.62C54.149,424.955,54.548,421.534,52.167,420.64Zm-17.949-.278a3.191,3.191,0,1,0-3.191-3.191A3.188,3.188,0,0,0,34.218,420.362Z" transform="translate(-28.959 -413.98)" fill="#cecece"/></svg>