<svg xmlns="http://www.w3.org/2000/svg" width="27.878" height="30.2" viewBox="0 0 27.878 30.2"><g transform="translate(2692.667 -24.911)"><g transform="translate(-2915.733 90.855)"><path d="M2921.078-80.155a5.329,5.329,0,0,1-5.2-4.12,5.356,5.356,0,0,1,3.975-6.435,5.371,5.371,0,0,1,1.236-.145,5.327,5.327,0,0,1,5.2,4.119,5.355,5.355,0,0,1-3.975,6.436A5.376,5.376,0,0,1,2921.078-80.155ZM2919.751-84h0l-.718.684a2.842,2.842,0,0,0,1.917.757v.586h.441v-.586h.065a1.67,1.67,0,0,0,1.676-1.61c0-.042,0-.085,0-.127,0-1.055-.836-1.461-1.74-1.742v-1.642a1.455,1.455,0,0,1,1.036.434l.661-.686a2.735,2.735,0,0,0-1.677-.579h-.02v-.537h-.441v.554h-.017a1.688,1.688,0,0,0-1.691,1.612c0,1,.683,1.4,1.708,1.678v1.807a1.756,1.756,0,0,1-1.2-.6Zm1.64.6h0V-85.07c.376.127.759.326.759.839a.772.772,0,0,1-.187.567.777.777,0,0,1-.536.27l-.035,0Zm-.441-2.752h0c-.495-.145-.725-.393-.725-.781a.733.733,0,0,1,.208-.525.733.733,0,0,1,.518-.224v1.529Z" transform="translate(-2676 43.911)" fill="#fff" stroke="rgba(0,0,0,0)" stroke-miterlimit="10" stroke-width="1"/></g><path d="M250.473,165.484a6.562,6.562,0,1,0-6.562-6.562h0A6.562,6.562,0,0,0,250.473,165.484Z" transform="translate(-2930.793 -127.449)" fill="#fff"/><path d="M254.067,175.772a6.4,6.4,0,0,1,8.553-6.048,6.992,6.992,0,0,0-4.174-4.879,2.428,2.428,0,0,0-2.461.434,8.077,8.077,0,0,1-10.308,0,2.515,2.515,0,0,0-2.461-.434c-5.608,2.116-4.648,10.166-4.648,10.341a3.791,3.791,0,0,0,3.783,3.8h12.584A6.376,6.376,0,0,1,254.067,175.772Z" transform="translate(-2931.172 -126.585)" fill="#fff"/></g></svg>