<svg xmlns="http://www.w3.org/2000/svg" width="30" height="26.951" viewBox="0 0 30 26.951"><g transform="translate(-85 -477.903)"><g transform="translate(85 477.903)"><g transform="translate(0 12.663)"><path d="M198.373-50.621a2.869,2.869,0,0,0-1.548-.307c-.11,0-.27.005-.449.005a30.028,30.028,0,0,1,3.523-2.454,4.932,4.932,0,0,1,1.626-.306Z" transform="translate(-175.141 54.191)" fill="#fff"/><path d="M157.176-46.028c1.488-.817,5.23-2.962,5.386-3.146.9-1.057,3.162-4.418,9.892-2.15a10.28,10.28,0,0,0,2.6.575c.008,0,.011.008.019.009,1.19.056,2.868.1,3.471.07.922-.037,1.566.274,1.654.805.083.506-.391,1.212-1.631,1.569a40.863,40.863,0,0,1-8.171.948.349.349,0,0,0-.343.354.35.35,0,0,0,.349.343h.005a40.679,40.679,0,0,0,8.354-.975c1.656-.478,2.261-1.526,2.125-2.353a1.438,1.438,0,0,0-.288-.63l3.765-3.656a1.885,1.885,0,0,1,1.831-.184c.608.412,1.046,1.321.024,2.818-.966,1.416-4.626,6.122-9.136,8.266a8.579,8.579,0,0,1-3.922.628l-6.745-.941a4.519,4.519,0,0,0-2.427.365l-3.669,2.831a.679.679,0,0,1-1.012-.214l-2.394-4.417A.672.672,0,0,1,157.176-46.028Z" transform="translate(-156.828 54.629)" fill="#fff"/></g><g transform="translate(10.049 0)"><path d="M186.466-69.162c0,.494.341.727.8.862v-1.688A.813.813,0,0,0,186.466-69.162Z" transform="translate(-180.602 74.404)" fill="#fff"/><path d="M188.857-64.637v1.85l.04,0a.861.861,0,0,0,.8-.922C189.692-64.242,189.336-64.475,188.857-64.637Z" transform="translate(-181.709 71.926)" fill="#fff"/><path d="M188.978-72.969h0a6.808,6.808,0,0,0-8.191-5.059,6.808,6.808,0,0,0-5.059,8.191,6.807,6.807,0,0,0,8.191,5.059h0A6.806,6.806,0,0,0,188.978-72.969Zm-4.371,3.045a1.846,1.846,0,0,1-1.915,1.775v.646h-.485v-.646a3.135,3.135,0,0,1-2.11-.835l.79-.754a1.941,1.941,0,0,0,1.32.664v-1.993c-1.05-.287-1.879-.7-1.879-1.85a1.862,1.862,0,0,1,1.879-1.778v-.61h.485v.593a2.99,2.99,0,0,1,1.867.637l-.727.757a1.591,1.591,0,0,0-1.14-.479v1.811c.919.287,1.915.709,1.915,1.921C184.61-70.018,184.61-69.971,184.607-69.924Z" transform="translate(-175.544 78.213)" fill="#fff"/></g></g></g></svg>