<svg xmlns="http://www.w3.org/2000/svg" width="20.857" height="18.89" viewBox="0 0 20.857 18.89"><path d="M39.4,424.62a4.07,4.07,0,1,0-4.07-4.07A4.067,4.067,0,0,0,39.4,424.62Zm4.7-.5a1.5,1.5,0,0,0-1.52.27,5,5,0,0,1-6.38,0,1.558,1.558,0,0,0-1.52-.27c-3.47,1.31-2.88,6.29-2.88,6.4a2.347,2.347,0,0,0,2.35,2.35H44.62a2.347,2.347,0,0,0,2.35-2.35C46.98,430.42,47.58,425.44,44.1,424.12Zm-9.67-.67a2.29,2.29,0,0,1,.78-.14.969.969,0,0,1,.17.01,4.895,4.895,0,0,1-.87-2.77,3.159,3.159,0,0,1,.04-.55,2.769,2.769,0,0,1-1.25.29,2.859,2.859,0,0,1-1.81-.65.882.882,0,0,0-.87-.15c-1.97.74-1.64,3.58-1.64,3.64a1.34,1.34,0,0,0,1.34,1.34h2.5A4.872,4.872,0,0,1,34.43,423.45Zm11.06-4.19a2.64,2.64,0,1,0-2.64-2.64A2.637,2.637,0,0,0,45.49,419.26Zm2.67.23a.89.89,0,0,0-.87.15,2.8,2.8,0,0,1-1.81.65,2.906,2.906,0,0,1-1.25-.29,4.286,4.286,0,0,1,.04.55,4.82,4.82,0,0,1-.87,2.77c.06,0,.11-.01.17-.01a2.289,2.289,0,0,1,.78.14,4.47,4.47,0,0,1,1.6,1.01h2.5a1.34,1.34,0,0,0,1.34-1.34C49.8,423.06,50.13,420.23,48.16,419.49Zm-14.85-.23a2.64,2.64,0,1,0-2.64-2.64A2.637,2.637,0,0,0,33.31,419.26Z" transform="translate(-28.959 -413.98)" fill="#fff"/></svg>