<?xml version="1.0" encoding="UTF-8"?>
<svg width="17px" height="19px" viewBox="0 0 17 19" version="1.1" xmlns="http://www.w3.org/2000/svg" xmlns:xlink="http://www.w3.org/1999/xlink">
    <!-- Generator: Sketch 56.3 (81716) - https://sketch.com -->
    <title>Group</title>
    <desc>Created with Sketch.</desc>
    <g id="Page-1" stroke="none" stroke-width="1" fill="none" fill-rule="evenodd">
        <g id="Desktop-HD" transform="translate(-774.000000, -503.000000)" fill="#CECECE">
            <g id="Group" transform="translate(774.000000, 503.000000)">
                <path d="M8.5,9 C9.74244071,9 10.802931,8.56043535 11.6816148,7.68159371 C12.5605862,6.80275207 13,5.74224481 13,4.49992808 C13,3.25775519 12.5605862,2.19724793 11.6816148,1.31826245 C10.8027872,0.439420818 9.74215304,0 8.5,0 C7.25784696,0 6.19721281,0.439420818 5.31838522,1.31826245 C4.4394138,2.19724793 4,3.25775519 4,4.49992808 C4,5.74224481 4.4394138,6.80275207 5.31838522,7.68159371 C6.19735665,8.56043535 7.25784696,9 8.5,9 L8.5,9 Z" id="Shape"></path>
                <path d="M16.9574689,14.6431364 C16.9291642,14.2384746 16.8728512,13.8017998 16.7883817,13.3329645 C16.7039123,12.8641292 16.5970658,12.4295198 16.4682869,12.0288412 C16.339508,11.6283101 16.1664197,11.2376632 15.9490219,10.857048 C15.7317724,10.4764328 15.482217,10.1518773 15.2003557,9.88338128 C14.9184944,9.6148853 14.5745406,9.40067862 14.168198,9.24046618 C13.761559,9.08025374 13.3128334,9 12.8218731,9 C12.7494072,9 12.5803201,9.08615475 12.3147599,9.25846426 C12.0491998,9.43077377 11.7494072,9.62314671 11.4153823,9.83543557 C11.0813574,10.0475769 10.6465619,10.2400974 10.1114404,10.4121118 C9.57617072,10.5844213 9.03897451,10.6705761 8.49955542,10.6705761 C7.96028453,10.6705761 7.42308832,10.5844213 6.88781861,10.4121118 C6.3526971,10.2400974 5.9179016,10.0475769 5.5838767,9.83543557 C5.24985181,9.62314671 4.95005928,9.43077377 4.68449911,9.25846426 C4.41879075,9.08615475 4.24985181,9 4.17738589,9 C3.68642561,9 3.23770006,9.08025374 2.83120925,9.24046618 C2.42471844,9.40067862 2.08061648,9.61503282 1.79890338,9.88338128 C1.51719028,10.1518773 1.26763485,10.4764328 1.0503853,10.857048 C0.833135744,11.2376632 0.660047421,11.6284576 0.531268524,12.0288412 C0.402489627,12.4295198 0.295791346,12.8641292 0.211321873,13.3329645 C0.126704209,13.8017998 0.070391227,14.2383271 0.0422347362,14.6431364 C0.0140782454,15.0479457 0,15.4624917 0,15.8872169 C0,16.8486391 0.293864849,17.6079516 0.881446354,18.1648595 C1.46902786,18.7216198 2.24985181,19 3.22377001,19 L13.77623,19 C14.7501482,19 15.5308239,18.7216198 16.1185536,18.1648595 C16.7062833,17.6079516 17,16.8487866 17,15.8872169 C17,15.4624917 16.9859218,15.0477982 16.9574689,14.6431364 L16.9574689,14.6431364 Z" id="Shape"></path>
            </g>
        </g>
    </g>
</svg>