<svg xmlns="http://www.w3.org/2000/svg" xmlns:xlink="http://www.w3.org/1999/xlink" width="10.062" height="10.063" viewBox="0 0 10.062 10.063"><defs><clipPath id="a"><path d="M322.153,593.482q-.044-.129-.544-.379c-.09-.053-.219-.124-.385-.214s-.318-.174-.454-.251-.263-.15-.383-.221c-.019-.014-.078-.056-.178-.125a2.1,2.1,0,0,0-.254-.154.471.471,0,0,0-.2-.05.593.593,0,0,0-.357.2,3.456,3.456,0,0,0-.393.443,4.2,4.2,0,0,1-.379.443.544.544,0,0,1-.328.2.479.479,0,0,1-.161-.036c-.064-.024-.113-.044-.147-.061s-.09-.05-.171-.1-.126-.077-.136-.082a7.1,7.1,0,0,1-2.923-2.923c-.005-.01-.032-.055-.082-.136s-.084-.138-.1-.171-.037-.083-.061-.147a.479.479,0,0,1-.036-.161.544.544,0,0,1,.2-.328,4.309,4.309,0,0,1,.443-.379,3.456,3.456,0,0,0,.443-.393.593.593,0,0,0,.2-.357.471.471,0,0,0-.05-.2,1.979,1.979,0,0,0-.154-.254c-.069-.1-.111-.159-.125-.179-.071-.119-.145-.246-.221-.382s-.16-.287-.251-.454-.161-.295-.214-.386q-.251-.5-.379-.543a.406.406,0,0,0-.15-.021,2.409,2.409,0,0,0-.5.071,2.907,2.907,0,0,0-.489.15,1.92,1.92,0,0,0-.758.872,2.77,2.77,0,0,0-.364,1.329,2.718,2.718,0,0,0,.025.376,3,3,0,0,0,.089.411c.043.152.078.265.1.339s.075.206.146.4.115.307.129.35a6.472,6.472,0,0,0,.593,1.251,12.01,12.01,0,0,0,3.43,3.43,6.476,6.476,0,0,0,1.251.593c.043.015.16.057.35.129s.323.12.4.146.187.061.339.1a3.171,3.171,0,0,0,.411.09,2.881,2.881,0,0,0,.375.025,2.773,2.773,0,0,0,1.33-.365,1.91,1.91,0,0,0,.871-.758,2.775,2.775,0,0,0,.151-.489,2.392,2.392,0,0,0,.071-.5A.406.406,0,0,0,322.153,593.482Z" fill="#666" clip-rule="evenodd"/></clipPath><clipPath id="b"><rect width="12" height="12" transform="translate(311.143 584.716)" fill="#666"/></clipPath></defs><g transform="translate(-312.112 -585.685)"><path d="M322.153,593.482q-.044-.129-.544-.379c-.09-.053-.219-.124-.385-.214s-.318-.174-.454-.251-.263-.15-.383-.221c-.019-.014-.078-.056-.178-.125a2.1,2.1,0,0,0-.254-.154.471.471,0,0,0-.2-.05.593.593,0,0,0-.357.2,3.456,3.456,0,0,0-.393.443,4.2,4.2,0,0,1-.379.443.544.544,0,0,1-.328.2.479.479,0,0,1-.161-.036c-.064-.024-.113-.044-.147-.061s-.09-.05-.171-.1-.126-.077-.136-.082a7.1,7.1,0,0,1-2.923-2.923c-.005-.01-.032-.055-.082-.136s-.084-.138-.1-.171-.037-.083-.061-.147a.479.479,0,0,1-.036-.161.544.544,0,0,1,.2-.328,4.309,4.309,0,0,1,.443-.379,3.456,3.456,0,0,0,.443-.393.593.593,0,0,0,.2-.357.471.471,0,0,0-.05-.2,1.979,1.979,0,0,0-.154-.254c-.069-.1-.111-.159-.125-.179-.071-.119-.145-.246-.221-.382s-.16-.287-.251-.454-.161-.295-.214-.386q-.251-.5-.379-.543a.406.406,0,0,0-.15-.021,2.409,2.409,0,0,0-.5.071,2.907,2.907,0,0,0-.489.15,1.92,1.92,0,0,0-.758.872,2.77,2.77,0,0,0-.364,1.329,2.718,2.718,0,0,0,.025.376,3,3,0,0,0,.089.411c.043.152.078.265.1.339s.075.206.146.4.115.307.129.35a6.472,6.472,0,0,0,.593,1.251,12.01,12.01,0,0,0,3.43,3.43,6.476,6.476,0,0,0,1.251.593c.043.015.16.057.35.129s.323.12.4.146.187.061.339.1a3.171,3.171,0,0,0,.411.09,2.881,2.881,0,0,0,.375.025,2.773,2.773,0,0,0,1.33-.365,1.91,1.91,0,0,0,.871-.758,2.775,2.775,0,0,0,.151-.489,2.392,2.392,0,0,0,.071-.5A.406.406,0,0,0,322.153,593.482Z" fill="#666" fill-rule="evenodd"/><g clip-path="url(#a)"><rect width="12" height="12" transform="translate(311.143 584.716)" fill="#666"/><g clip-path="url(#b)"><rect width="20.062" height="20.063" transform="translate(307.112 580.685)" fill="#666"/></g></g></g></svg>