<svg xmlns="http://www.w3.org/2000/svg" width="22.863" height="25.876" viewBox="0 0 22.863 25.876"><g transform="translate(-2708.003 -1582.169)"><path d="M3719.534,2843.318a6.582,6.582,0,0,1-.021-3.259c.02-.082.035-.173.045-.239,0-.01,0-.019,0-.028a.8.8,0,0,0-.42-.74,6.673,6.673,0,0,1-2.392-2.338.808.808,0,0,0-1.06-.423,6.5,6.5,0,0,1-3.261.016,1.333,1.333,0,0,0-.318-.044.79.79,0,0,0-.711.479,6.6,6.6,0,0,1-2.312,2.338.793.793,0,0,0-.421,1.009,6.633,6.633,0,0,1,.025,3.315.793.793,0,0,0,.425,1.011,6.632,6.632,0,0,1,2.357,2.333.788.788,0,0,0,.991.408,6.707,6.707,0,0,1,3.313-.027.8.8,0,0,0,1.031-.436,6.6,6.6,0,0,1,2.287-2.321A.81.81,0,0,0,3719.534,2843.318Zm-2.02-2.3-4.063,3.222a.64.64,0,0,1-.843-.041l-1.792-1.732a.641.641,0,1,1,.89-.921l1.39,1.342,3.624-2.873a.64.64,0,1,1,.8,1Z" transform="translate(-988.718 -1239.153)" fill="#cecece"/><path d="M2718.734,1605.368a2.062,2.062,0,0,1-.158-.774,2.639,2.639,0,0,1,.081-.665,5.29,5.29,0,0,0-.019-2.645,2.218,2.218,0,0,1,.066-1.453,2.077,2.077,0,0,1,.436-.652,2.626,2.626,0,0,1,.53-.413,5.266,5.266,0,0,0,1.843-1.863,2.409,2.409,0,0,1,.72-.8,2.024,2.024,0,0,1,1.16-.351,2.652,2.652,0,0,1,.645.084h0a5.308,5.308,0,0,0,1.279.16,5.152,5.152,0,0,0,1.309-.171h0a2.742,2.742,0,0,1,.7-.1,2.166,2.166,0,0,1,.335.026v-13.585H2708v23.393h10.825A1.945,1.945,0,0,1,2718.734,1605.368Zm-6.841-17.517h11.88a.742.742,0,0,1,0,1.485h-11.88a.742.742,0,0,1,0-1.485Zm0,5.6h11.88a.742.742,0,0,1,0,1.485h-11.88a.742.742,0,0,1,0-1.485Zm5.288,7.1h-5.288c-.205,0-.742-.332-.742-.743s.537-.742.742-.742h5.288a.749.749,0,0,1,0,1.485Z" fill="#cecece"/></g></svg>