<svg xmlns="http://www.w3.org/2000/svg" width="91.072" height="79.398" viewBox="0 0 91.072 79.398"><g transform="translate(2641.356 5216.319)"><g transform="translate(-2641.356 -5216.319)"><g transform="translate(30.658 0)"><path d="M273.014,176.981l.337-10.634-.01-.217v0l-1.332-11.655.327-4.666a1.481,1.481,0,0,0-1.484-1.59H246.575a1.485,1.485,0,0,0-1.482,1.59l.327,4.666-1.334,11.659-.008.217.337,10.634a1.486,1.486,0,0,0,1.486,1.436h25.627A1.486,1.486,0,0,0,273.014,176.981Zm-19.738-26.273h10.881a1.191,1.191,0,0,1,0,2.382H253.275a1.191,1.191,0,0,1,0-2.382Zm-.841,23.026a1.182,1.182,0,0,1-1.182,1.182h-2.8a1.18,1.18,0,0,1-1.18-1.182V172.3a1.181,1.181,0,0,1,1.18-1.182h2.8a1.183,1.183,0,0,1,1.182,1.182Zm17.726,0a1.182,1.182,0,0,1-1.182,1.182h-2.8A1.18,1.18,0,0,1,265,173.734V172.3a1.182,1.182,0,0,1,1.182-1.182h2.8a1.183,1.183,0,0,1,1.182,1.182Zm-.14-8.14a1.188,1.188,0,0,1-.879.392H248.288a1.195,1.195,0,0,1-1.186-1.31l.768-7.661a1.189,1.189,0,0,1,1.182-1.072h19.324a1.193,1.193,0,0,1,1.184,1.072l.763,7.661A1.2,1.2,0,0,1,270.021,165.594Z" transform="translate(-244.077 -148.215)" fill="#fff"/><path d="M254.831,168.047a1.073,1.073,0,0,0,.745.307h3.163a1.047,1.047,0,0,0,1.048-1.05v-3.291h-5.263V167.3A1.071,1.071,0,0,0,254.831,168.047Z" transform="translate(-233.311 -131.936)" fill="#fff"/><path d="M245.766,168.048a1.064,1.064,0,0,0,.741.307h3.163a1.054,1.054,0,0,0,1.054-1.05v-3.291l-5.269,0V167.3A1.066,1.066,0,0,0,245.766,168.048Z" transform="translate(-242.657 -131.937)" fill="#fff"/></g><g transform="translate(0 56.537)"><path d="M248.948,187.38c0-.077-.018-.15-.022-.225a4.032,4.032,0,0,0-4.016-3.813h0a4.029,4.029,0,0,0-4.014,3.813c-.006.075-.024.148-.024.225a4.039,4.039,0,0,0,8.077,0Zm-4.039,1.551h0a1.551,1.551,0,0,1-1.551-1.551,1.428,1.428,0,0,1,.045-.225,1.518,1.518,0,0,1,3.013,0,1.428,1.428,0,0,1,.045.225A1.552,1.552,0,0,1,244.91,188.931Z" transform="translate(-216.722 -168.555)" fill="#fff"/><path d="M235.732,183.341h0a4.031,4.031,0,0,0-4.016,3.813c0,.075-.022.148-.022.225a4.039,4.039,0,0,0,8.077,0c0-.077-.02-.15-.024-.225A4.024,4.024,0,0,0,235.732,183.341Zm0,5.59h0a1.554,1.554,0,0,1-1.553-1.551,1.435,1.435,0,0,1,.047-.225,1.52,1.52,0,0,1,3.015,0,1.431,1.431,0,0,1,.045.225A1.554,1.554,0,0,1,235.732,188.931Z" transform="translate(-226.18 -168.555)" fill="#fff"/><path d="M267.135,189.454a6.228,6.228,0,0,0-.11-1.166c-.39-1.7-1.927-4.351-4.236-7.048-2.315-2.6-5.352-5.127-9.04-5.18l-.008,0-.093,0H231.721a2.815,2.815,0,0,0-2.743,2.851v14.254a1.494,1.494,0,0,0,1.492,1.492h2.508a5.553,5.553,0,0,1,11.1,0h7.537a5.566,5.566,0,0,1,5.551-5.348v0a5.56,5.56,0,0,1,5.547,5.346H264a1.487,1.487,0,0,0,.995-.386A6.847,6.847,0,0,0,267.135,189.454Zm-18.356-4.839h-5.915v-5.574h5.915Zm2.672,0v-5.574h2.28a.53.53,0,0,0,.059,0c2.11-.028,4.737,1.825,6.755,4.165.408.453.784.93,1.141,1.407Z" transform="translate(-228.978 -176.059)" fill="#fff"/></g><g transform="translate(52.381 56.536)"><path d="M265.6,187.379c0-.128-.026-.246-.036-.37a4.106,4.106,0,0,0-8.183,0,3.685,3.685,0,0,0-.039.37,4.129,4.129,0,0,0,8.258,0Zm-5.529,0a1.315,1.315,0,0,1,.077-.37,1.366,1.366,0,0,1,2.648,0,1.313,1.313,0,0,1,.075.37,1.4,1.4,0,0,1-2.8,0Z" transform="translate(-252.131 -168.645)" fill="#fff"/><path d="M271.569,191.507a4.129,4.129,0,0,0,4.128-4.128,3.676,3.676,0,0,0-.039-.37,4.1,4.1,0,0,0-8.179,0,3.676,3.676,0,0,0-.039.37A4.129,4.129,0,0,0,271.569,191.507Zm-1.324-4.5a1.365,1.365,0,0,1,2.646,0,1.247,1.247,0,0,1,.077.37,1.4,1.4,0,0,1-1.4,1.4h0a1.325,1.325,0,0,1-1.322-1.769Z" transform="translate(-241.723 -168.645)" fill="#fff"/><path d="M258.481,194.423a5.642,5.642,0,0,1,11.263,0h9.249a5.64,5.64,0,0,1,11.259,0h1.7a1.515,1.515,0,0,0,1.515-1.515v-1.838c-.045-2.715-2.041-4.339-3.633-5.3a15.493,15.493,0,0,0-2.227-1.08c-.209-.081-.394-.148-.546-.2-4.353-6.025-8.355-8.528-14.845-8.427-.96,0-1.976.045-3.062.128-6.242.449-10.051,2.42-12.122,5.363-2.053,2.93-2.246,6.378-2.254,9.468v1.8c0,.028,0,.057,0,.085a1.518,1.518,0,0,0,1.517,1.515Zm12.276-15.294c.508-.024.995-.037,1.458-.037,5.076.089,7.464,1.174,10.922,5.342h-12.38Zm-3.182.278c.248-.033.493-.067.753-.1v5.123h-8.841C260.777,181,265.208,179.8,267.575,179.408Z" transform="translate(-254.775 -176.059)" fill="#fff"/></g><g transform="translate(39.103 40.33)"><g transform="translate(6.162)"><line y2="9.103" fill="none" stroke="#fff" stroke-linecap="round" stroke-linejoin="round" stroke-width="4.34"/></g><g transform="translate(6.162 9.103)"><line x2="6.436" y2="6.436" fill="none" stroke="#fff" stroke-linecap="round" stroke-linejoin="round" stroke-width="4.34"/></g><g transform="translate(0 9.103)"><line x1="6.436" y2="6.436" fill="none" stroke="#fff" stroke-linecap="round" stroke-linejoin="round" stroke-width="4.34"/></g></g></g></g></svg>