<svg id="read_to_be_submitted" data-name="read to be submitted" xmlns="http://www.w3.org/2000/svg" width="22" height="22" viewBox="0 0 22 22">
  <path id="Path_1816" data-name="Path 1816" d="M11,0A11,11,0,1,1,0,11,11,11,0,0,1,11,0Z" fill="#423f8f"/>
  <g id="Group_1486" data-name="Group 1486" transform="translate(-572.5 -22.186)">
    <path id="Path_1091" data-name="Path 1091" d="M609.729,29.042l2.856-2.856,2.856,2.856" transform="translate(-29.135 0)" fill="none" stroke="#fff" stroke-width="1.5"/>
    <path id="Path_1092" data-name="Path 1092" d="M639.48,34.923V26.6" transform="translate(-56.03 -0.377)" fill="none" stroke="#fff" stroke-width="1.5"/>
    <path id="Path_1091-2" data-name="Path 1091" d="M588.348,92.937h-1.992l2,.048h-.008a1.1,1.1,0,0,1,1.1,1.1v2.4a1.1,1.1,0,0,1-1.1,1.1h-9.7a1.1,1.1,0,0,1-1.1-1.1v-2.4a1.1,1.1,0,0,1,1.1-1.1h1.992l-1-.048h-.992a1.152,1.152,0,0,0-1.152,1.152v2.4a1.152,1.152,0,0,0,1.152,1.152h9.7a1.152,1.152,0,0,0,1.152-1.152v-2.4A1.152,1.152,0,0,0,588.348,92.937Z" transform="translate(0 -60.343)" fill="none" stroke="#fff" stroke-width="1.5"/>
  </g>
</svg>
