<svg xmlns="http://www.w3.org/2000/svg" width="37" height="27.71" viewBox="0 0 37 27.71">
  <path id="Path_1079" data-name="Path 1079" d="M2556.307,292.975l-13.53-24.619a1.546,1.546,0,0,0-1.354-.8h-2.889l.086,1.837h-1.239l.086-1.837h-2.889a1.545,1.545,0,0,0-1.354.8l-13.53,24.619a1.546,1.546,0,0,0,1.354,2.29h15.126l.323-6.928h3.007l.323,6.928h15.126A1.546,1.546,0,0,0,2556.307,292.975Zm-18.954-23h1.294l.161,3.456h-1.616Zm-.2,4.347h1.7l.258,5.534h-2.216Zm-.595,12.745.291-6.227h2.307l.291,6.227Z" transform="translate(-2519.5 -267.555)" fill="#024f6e"/>
</svg>
