<svg xmlns="http://www.w3.org/2000/svg" width="26.219" height="25.643" viewBox="0 0 26.219 25.643"><g transform="translate(-3.531 -4)"><path d="M6.813,12.75V10H8.875v2.75h2.1V8.625h1.341L7.844,4.5,3.375,8.625H4.716V12.75Z" transform="translate(0.156 -0.5)" fill="#fff"/><path d="M21.24,9.354H18.7l-.707-1.8A4.735,4.735,0,0,0,13.573,4.5h-5.4A4.737,4.737,0,0,0,3.76,7.551l-.707,1.8H.51A.518.518,0,0,0,.016,10l.255,1.04a.512.512,0,0,0,.494.394h.853a2.778,2.778,0,0,0-.938,2.08V15.6a2.783,2.783,0,0,0,.68,1.817v2.344a1.374,1.374,0,0,0,1.359,1.387H4.078a1.374,1.374,0,0,0,1.359-1.387V18.37H16.313v1.387a1.374,1.374,0,0,0,1.359,1.387h1.359a1.374,1.374,0,0,0,1.359-1.387V17.413a2.781,2.781,0,0,0,.68-1.817v-2.08a2.779,2.779,0,0,0-.938-2.08h.853a.511.511,0,0,0,.494-.394L21.735,10a.518.518,0,0,0-.495-.646ZM6.284,8.582A2.04,2.04,0,0,1,8.178,7.274h5.4a2.04,2.04,0,0,1,1.893,1.308l.847,2.16H5.438ZM4.078,15.587A1.3,1.3,0,0,1,2.719,14.2a1.3,1.3,0,0,1,1.359-1.383A2.642,2.642,0,0,1,6.117,14.9C6.117,15.725,4.894,15.587,4.078,15.587Zm13.594,0c-.816,0-2.039.138-2.039-.691a2.642,2.642,0,0,1,2.039-2.074A1.3,1.3,0,0,1,19.031,14.2a1.3,1.3,0,0,1-1.359,1.383Z" transform="translate(8 8.5)" fill="#fff"/></g></svg>