<svg xmlns="http://www.w3.org/2000/svg" width="28.703" height="24" viewBox="0 0 28.703 24"><g transform="translate(-233.345 -335.46)"><path d="M259.019,374.585c1.9-.169,3.023.812,3.026,2.506q.009,5.315,0,10.63c0,1.848-.952,2.774-2.88,2.778-3.923.009-7.846,0-11.768,0q-5.5,0-10.991,0c-2.057,0-3.051-.964-3.055-2.955q-.01-5.125,0-10.25a2.557,2.557,0,0,1,2.051-2.73c.793-.192,1.13.021,1.122.871-.031,3.258-.014,6.517-.011,9.776,0,1.458.178,1.631,1.676,1.631q9.532,0,19.063,0c1.529,0,1.765-.24,1.765-1.779q0-4.7,0-9.4Z" transform="translate(0 -31.043)" fill="#fff"/><path d="M274.312,338.177c-2.054,0-4.108.007-6.161,0-1.031,0-1.667-.535-1.669-1.351s.635-1.355,1.664-1.357q6.161-.012,12.323,0c1.086,0,1.6.485,1.573,1.4-.024.863-.521,1.3-1.568,1.3C278.419,338.187,276.365,338.177,274.312,338.177Z" transform="translate(-26.349)" fill="#fff"/><path d="M274.432,385.458h6.162a1.34,1.34,0,0,1,1.5.927,1.325,1.325,0,0,1-1.363,1.776c-1.369.035-2.738.01-4.108.01H268.6a5.846,5.846,0,0,1-.746-.015,1.277,1.277,0,0,1-1.247-1.368,1.244,1.244,0,0,1,1.294-1.315c1.493-.036,2.987-.015,4.481-.017Q273.4,385.456,274.432,385.458Z" transform="translate(-26.445 -40.321)" fill="#fff"/><path d="M274.345,362.895c-2.114,0-4.228,0-6.342,0-.963,0-1.485-.441-1.509-1.247-.025-.836.527-1.319,1.535-1.32q6.295-.005,12.59,0c.973,0,1.439.436,1.432,1.3s-.474,1.267-1.458,1.27C278.51,362.9,276.428,362.895,274.345,362.895Z" transform="translate(-26.359 -20.051)" fill="#fff"/><path d="M274.368,410.293c2.083,0,4.166,0,6.248,0,.992,0,1.448.412,1.453,1.271s-.459,1.293-1.435,1.294q-6.342.008-12.683,0c-.925,0-1.505-.52-1.427-1.321a1.238,1.238,0,0,1,1.409-1.255C270.078,410.311,272.224,410.293,274.368,410.293Z" transform="translate(-26.378 -60.343)" fill="#fff"/></g></svg>