<svg xmlns="http://www.w3.org/2000/svg" width="79.91" height="80.606" viewBox="0 0 79.91 80.606"><g transform="translate(2803.319 5216.319)"><g transform="translate(-2803.319 -5216.319)"><path d="M743.857,51.442l-6.08-5.628L729.119,42.3l-11.325,3.672-6.981,8.086-1.241,12.237L716.707,78.7l11.474,12.838L741.84,76.719l4.654-13.068ZM728.181,68.775a7.737,7.737,0,1,1,7.737-7.737A7.737,7.737,0,0,1,728.181,68.775Z" transform="translate(-667.319 -42.297)" fill="#024f6e"/><path d="M651.859,139.247a9.6,9.6,0,1,1,9.6-9.6A9.607,9.607,0,0,1,651.859,139.247Zm0-15.681a6.085,6.085,0,1,0,6.085,6.085A6.091,6.091,0,0,0,651.859,123.566Z" transform="translate(-632.812 -82.161)" fill="#024f6e"/><path d="M641.916,151.839a1.672,1.672,0,0,1-1.049-.372c-.735-.594-18-14.735-18-31.172a19.047,19.047,0,0,1,38.095,0c0,16.43-17.263,30.578-18,31.172A1.673,1.673,0,0,1,641.916,151.839Zm0-47.173A15.688,15.688,0,0,0,626.2,120.3c0,11.962,10.6,22.988,15.158,27.173a.816.816,0,0,0,1.1,0c4.559-4.2,15.162-15.242,15.162-27.172A15.688,15.688,0,0,0,641.916,104.666Z" transform="translate(-622.869 -72.562)" fill="#024f6e"/><path d="M737.665,80.255a9.6,9.6,0,1,1,9.6-9.6A9.607,9.607,0,0,1,737.665,80.255Zm0-15.681a6.084,6.084,0,1,0,6.085,6.085A6.091,6.091,0,0,0,737.665,64.575Z" transform="translate(-676.803 -51.918)" fill="#024f6e"/><path d="M727.721,92.848a1.671,1.671,0,0,1-1.049-.371c-.735-.594-18-14.736-18-31.172a19.048,19.048,0,0,1,38.1,0c0,16.429-17.263,30.578-18,31.172A1.671,1.671,0,0,1,727.721,92.848Zm0-47.173A15.689,15.689,0,0,0,712.01,61.3c0,11.962,10.6,22.988,15.158,27.172a.814.814,0,0,0,1.1,0c4.559-4.2,15.162-15.242,15.162-27.172A15.688,15.688,0,0,0,727.721,45.675Z" transform="translate(-666.859 -42.319)" fill="#024f6e"/><path d="M686.922,176.515a1.756,1.756,0,1,1,0-3.511h37.895a4.778,4.778,0,1,0,0-9.556H703.909a8.289,8.289,0,1,1,0-16.579h3.92a1.756,1.756,0,0,1,0,3.512h-3.92a4.778,4.778,0,1,0,0,9.555h20.908a8.289,8.289,0,0,1,0,16.579Z" transform="translate(-654.807 -95.909)" fill="#024f6e"/><path d="M658.356,110.886l-6.079-5.628-8.659-3.517-10.682,1.982-7.625,9.776-1.241,12.237,7.136,12.412,11.474,12.838,13.659-14.823,4.654-13.068Zm-15.824,17.291a7.922,7.922,0,1,1,7.922-7.922A7.922,7.922,0,0,1,642.532,128.177Z" transform="translate(-623.485 -72.773)" fill="#024f6e"/></g></g></svg>