<svg xmlns="http://www.w3.org/2000/svg" width="27" height="25.217" viewBox="0 0 27 25.217"><g transform="translate(-3 -4.783)"><path d="M17.493,8.418H15.4l-.582-1.455A3.9,3.9,0,0,0,11.178,4.5H6.735A3.9,3.9,0,0,0,3.1,6.963L2.515,8.418H.42a.42.42,0,0,0-.407.522l.21.84A.42.42,0,0,0,.63,10.1h.7A2.223,2.223,0,0,0,.56,11.777v1.679a2.221,2.221,0,0,0,.56,1.467v1.892a1.12,1.12,0,0,0,1.12,1.12h1.12a1.12,1.12,0,0,0,1.12-1.12V15.7h8.956v1.12a1.12,1.12,0,0,0,1.12,1.12h1.12a1.12,1.12,0,0,0,1.12-1.12V14.923a2.219,2.219,0,0,0,.56-1.467V11.777a2.224,2.224,0,0,0-.772-1.679h.7a.42.42,0,0,0,.407-.318l.21-.84a.42.42,0,0,0-.408-.522ZM5.176,7.795A1.679,1.679,0,0,1,6.735,6.739h4.443a1.679,1.679,0,0,1,1.559,1.056l.7,1.743H4.478ZM3.359,13.449a1.056,1.056,0,0,1-1.12-1.116,1.056,1.056,0,0,1,1.12-1.116,2.154,2.154,0,0,1,1.679,1.674C5.038,13.561,4.031,13.449,3.359,13.449Zm11.2,0c-.672,0-1.679.112-1.679-.558a2.154,2.154,0,0,1,1.679-1.674,1.056,1.056,0,0,1,1.12,1.116,1.056,1.056,0,0,1-1.12,1.116Z" transform="translate(3 11.33)" fill="#024f6e"/><rect width="4" height="16" rx="2" transform="translate(26 14)" fill="#024f6e"/><rect width="20.741" height="3.771" transform="matrix(0.799, 0.602, -0.602, 0.799, 12.88, 4.783)" fill="#024f6e"/></g></svg>