<svg xmlns="http://www.w3.org/2000/svg" width="30.84" height="22.866" viewBox="0 0 30.84 22.866"><g transform="translate(-229.389 -324.843)"><path d="M259.075,324.843h-23.8A1.157,1.157,0,0,0,234.121,326v5.81h1.9v-5.062h22.3v15.731H246.821l-1.773,1.9h14.027a1.155,1.155,0,0,0,1.154-1.154V326A1.156,1.156,0,0,0,259.075,324.843Z" fill="#fff"/><circle cx="3.454" cy="3.454" r="3.454" transform="translate(231.618 333.462)" fill="#fff"/><path d="M229.451,347.709s-1.514-9.479,10.435-5.415l5.787-5.827a1.727,1.727,0,0,1,2.514-.344,1.533,1.533,0,0,1,.136,2.3l-8.97,9.288Z" fill="#fff"/></g></svg>