<svg id="Trashcan" xmlns="http://www.w3.org/2000/svg" width="30" height="30" viewBox="0 0 30 30">
  <g id="Group_872" data-name="Group 872" transform="translate(-155 -968)">
    <g id="Group_869" data-name="Group 869" transform="translate(155 968)">
      <rect id="Rectangle_1115" data-name="Rectangle 1115" width="30" height="30" rx="15" transform="translate(0)" fill="#024F6E"/>
      <path id="Path_504" data-name="Path 504" d="M843.569,680.344v-8.534a.57.57,0,0,0-1.14,0v8.534a.57.57,0,0,0,1.14,0Zm-4.2.57a.57.57,0,0,0,.57-.57v-8.534a.57.57,0,1,0-1.14,0v8.534A.57.57,0,0,0,839.374,680.914Zm7.913-11.525h-3.3a2.806,2.806,0,0,0-5.606,0h-3.3a.57.57,0,0,0,0,1.14h12.2a.57.57,0,0,0,0-1.14Zm-7.761,0a1.665,1.665,0,0,1,3.321,0Zm6.931,1.85a.552.552,0,0,0-.552.552v8.074a2.444,2.444,0,0,1-2.441,2.441H838.91a2.444,2.444,0,0,1-2.441-2.441v-8.074a.552.552,0,0,0-1.1,0v8.074a3.55,3.55,0,0,0,3.546,3.546h4.553a3.55,3.55,0,0,0,3.546-3.546v-8.074A.552.552,0,0,0,846.456,671.239Z" transform="translate(-826.574 -660.159)" fill="#fff" stroke="#fff" stroke-width="0.5"/>
    </g>
  </g>
</svg>
