<svg xmlns="http://www.w3.org/2000/svg" width="21.062" height="24.071" viewBox="0 0 21.062 24.071"><path d="M18.805,0H2.257A2.314,2.314,0,0,0,0,2.257V21.814a2.314,2.314,0,0,0,2.257,2.257H18.805a2.314,2.314,0,0,0,2.257-2.257V2.257A2.314,2.314,0,0,0,18.805,0ZM6.018,20.46a.647.647,0,0,1-.6.6H3.611a.647.647,0,0,1-.6-.6V18.655a.647.647,0,0,1,.6-.6H5.416a.647.647,0,0,1,.6.6Zm0-6.018a.647.647,0,0,1-.6.6H3.611a.647.647,0,0,1-.6-.6V12.637a.647.647,0,0,1,.6-.6H5.416a.647.647,0,0,1,.6.6Zm6.018,6.018a.647.647,0,0,1-.6.6H9.628a.647.647,0,0,1-.6-.6V18.655a.647.647,0,0,1,.6-.6h1.805a.647.647,0,0,1,.6.6Zm0-6.018a.647.647,0,0,1-.6.6H9.628a.647.647,0,0,1-.6-.6V12.637a.647.647,0,0,1,.6-.6h1.805a.647.647,0,0,1,.6.6Zm6.018,6.018a.647.647,0,0,1-.6.6H15.646a.647.647,0,0,1-.6-.6V12.637a.647.647,0,0,1,.6-.6h1.805a.647.647,0,0,1,.6.6Zm0-12.035a.647.647,0,0,1-.6.6H3.611a.647.647,0,0,1-.6-.6V3.611a.647.647,0,0,1,.6-.6H17.451a.647.647,0,0,1,.6.6Z" fill="#fff"/></svg>