<svg xmlns="http://www.w3.org/2000/svg" width="24.6" height="23.565" viewBox="0 0 24.6 23.565"><g transform="translate(48.61 -7.464)"><path d="M-24.011,23.186c.036-1.283-.572-1.859-1.827-1.852q-2.483.016-4.966,0a1.136,1.136,0,0,0-1.171.512,2.8,2.8,0,0,1-2.814,1.346,30.979,30.979,0,0,0-3.172,0,2.733,2.733,0,0,1-2.6-1.232,1.177,1.177,0,0,0-1.107-.633c-1.746.031-3.5,0-5.243.015-1.209.008-1.727.649-1.7,1.837.031,1.24,0,2.481.009,3.722.015,1.583.447,2,2.077,2.008,3.4.008,6.807,0,10.21,0,3.449,0,6.9.008,10.347,0,1.456-.006,1.92-.455,1.941-1.861C-24,25.76-24.048,24.472-24.011,23.186Zm-5.663,2.941a.837.837,0,0,1-.806.853.965.965,0,0,1-.142.029c-.008,0-.015,0-.022,0s-.014,0-.021,0a.872.872,0,0,1-.921-.954v-.008c0-.031.015-.058.017-.088a.889.889,0,0,1,.249-.569.943.943,0,0,1,.438-.255,1.409,1.409,0,0,1,.152-.055c.024,0,.04.009.063.012s.029-.008.044-.008a.955.955,0,0,1,.649.259l.02.014a.79.79,0,0,1,.074.1.8.8,0,0,1,.141.207,1.131,1.131,0,0,1,.032.141,1.015,1.015,0,0,1,.046.2c0,.007,0,.012,0,.017s0,.014,0,.022C-29.659,26.073-29.673,26.1-29.675,26.126Zm3.8-.08a.867.867,0,0,1-.912.959c-.01,0-.016,0-.025,0s-.017.006-.027.006a.936.936,0,0,1-.142-.029.834.834,0,0,1-.8-.83.8.8,0,0,1-.021-.1c0-.009,0-.016,0-.024v-.008a.9.9,0,0,1,.033-.151.878.878,0,0,1,.044-.2.827.827,0,0,1,.274-.349.952.952,0,0,1,.609-.232l.018,0,.01,0c.021,0,.037.013.058.016a.952.952,0,0,1,.6.279.909.909,0,0,1,.262.61c0,.02.012.037.012.058h0Z" transform="translate(0 2.117)" fill="#fff"/><path d="M-43.353,15.873h3.577V22.54a.847.847,0,0,0,.846.846h4a.846.846,0,0,0,.846-.846V15.873H-30.5c1.268,0,1.6-.761.737-1.69l-1.228-1.322-3.138-3.379L-35.358,8.16a2.115,2.115,0,0,0-3.138,0l-1.228,1.322-3.138,3.379-1.228,1.322C-44.953,15.113-44.621,15.873-43.353,15.873Z" transform="translate(0.617)" fill="#fff"/></g></svg>