<svg xmlns="http://www.w3.org/2000/svg" width="77.569" height="78.751" viewBox="0 0 77.569 78.751"><g transform="translate(2467.553 5215.671)"><path d="M653.762,390.332a17.424,17.424,0,0,1,24.624-15.89V363.4l-.064-.019-2.06-9.123a35.9,35.9,0,0,0-10.108,0l-2.06,9.123a27.63,27.63,0,0,0-6.917,2.862l-7.905-5a36.728,36.728,0,0,0-7.15,7.148l5,7.907a27.732,27.732,0,0,0-2.863,6.916l-9.122,2.062a36.062,36.062,0,0,0,0,10.108l9.124,2.06a27.565,27.565,0,0,0,2.862,6.915l-5,7.911a36.536,36.536,0,0,0,7.15,7.143l7.905-4.99a27.648,27.648,0,0,0,6.917,2.861l2.06,9.122a35.955,35.955,0,0,0,10.108,0l2.06-9.122.064-.019V406.219a17.425,17.425,0,0,1-24.624-15.887Z" transform="translate(-3102.329 -5567.884)" fill="#fff"/><path d="M743.575,365.166a7.157,7.157,0,1,0-7.156-7.159A7.159,7.159,0,0,0,743.575,365.166Z" transform="translate(-3147.72 -5566.523)" fill="#fff"/><path d="M736.134,383.966v-.037h-.239a4.873,4.873,0,0,0-.5-.025V383.9h-5.9l-.018.032h-6.724l-.018-.032h-5.9v.032a4.852,4.852,0,0,0-3.752,1.47l-14.4,14.939a4.886,4.886,0,1,0,7.037,6.78l11.111-11.531v43.886a4.875,4.875,0,0,0,9.276,2.106,4.875,4.875,0,0,0,9.276-2.106V416.064a4.886,4.886,0,0,0,4.886-4.886v-22.39A4.883,4.883,0,0,0,736.134,383.966Z" transform="translate(-3130.261 -5581.28)" fill="#fff"/></g></svg>